<svg width="16" height="17" viewBox="0 0 16 17" fill="none" xmlns="http://www.w3.org/2000/svg">
<mask id="mask0_547_930" style="mask-type:alpha" maskUnits="userSpaceOnUse" x="0" y="0" width="16" height="17">
<rect y="0.740234" width="16" height="16" fill="#D9D9D9"/>
</mask>
<g mask="url(#mask0_547_930)">
<path d="M8.19441 7.05444C4.65565 7.07866 4.75972 9.68445 3.64391 10.612C2.52809 11.5395 2.30161 16.2944 7.47238 15.1092L9.02599 15.0985C14.2125 16.2132 13.9214 11.4618 12.7929 10.5495C11.6645 9.63712 11.7333 7.02997 8.19424 7.05411L8.19441 7.05444Z" fill="white"/>
<path d="M4.08044 6.40043C4.47263 7.55095 4.04065 8.73942 3.11551 9.05462C2.19062 9.3699 1.12274 8.69276 0.730629 7.54199C0.338432 6.39147 0.867976 5.48895 1.79287 5.17367C2.71776 4.85839 3.68807 5.24958 4.08019 6.40035L4.08044 6.40043Z" fill="white"/>
<path d="M7.71208 3.44187C8.14642 4.71635 7.6868 6.0259 6.68576 6.36716C5.68472 6.70841 4.52093 5.95192 4.08684 4.67752C3.6525 3.40304 4.22009 2.41018 5.22105 2.06917C6.22208 1.72792 7.27791 2.16772 7.71225 3.4422L7.71208 3.44187Z" fill="white"/>
<path d="M12.2973 6.34544C11.921 7.50125 12.3691 8.68355 13.2982 8.98615C14.2275 9.28882 15.2857 8.59719 15.6623 7.4412C16.0386 6.28539 15.4971 5.39025 14.568 5.08766C13.6387 4.78498 12.6739 5.18945 12.2974 6.34519L12.2973 6.34544Z" fill="white"/>
<path d="M8.6266 3.43589C8.20973 4.71603 8.68685 6.01938 9.69264 6.34673C10.6983 6.67433 11.8516 5.90212 12.2685 4.62199C12.6853 3.34186 12.1044 2.35679 11.0987 2.02919C10.093 1.70159 9.04347 2.15576 8.6266 3.43589Z" fill="white"/>
</g>
</svg>
