<svg width="413" height="244" viewBox="0 0 413 244" fill="none" xmlns="http://www.w3.org/2000/svg">
<g opacity="0.5">
<path d="M38.2734 13.8975C38.2734 13.8975 45.4571 13.3994 45.6973 5.95332V0.740234C45.6973 0.740234 46.1779 13.657 51.6878 12.9098C51.6878 12.9098 44.9765 20.6049 46.4182 24.5813C46.4182 24.5813 45.2168 15.89 38.2734 13.9061V13.8975Z" fill="#F4F8FB"/>
<path d="M38.2734 232.897C38.2734 232.897 45.4571 232.399 45.6973 224.953V219.74C45.6973 219.74 46.1779 232.657 51.6878 231.91C51.6878 231.91 44.9765 239.605 46.4182 243.581C46.4182 243.581 45.2168 234.89 38.2734 232.906V232.897Z" fill="#F4F8FB"/>
<path d="M302.204 21.9373C303.132 22.5127 303.596 23.7408 303.405 24.8487C303.289 25.5444 302.916 26.2057 302.328 26.5664C301.516 27.0559 300.406 26.8326 299.718 26.1627C298.865 25.3297 298.392 23.5347 299.047 22.4354C299.61 21.4821 301.384 21.4306 302.204 21.9373Z" fill="#F4F8FB"/>
<path d="M367.86 122.498C368.788 123.073 369.252 124.301 369.061 125.409C368.945 126.105 368.573 126.766 367.984 127.127C367.172 127.616 366.062 127.393 365.374 126.723C364.521 125.89 364.049 124.095 364.703 122.996C365.267 122.043 367.04 121.991 367.86 122.498Z" fill="#F4F8FB"/>
<path d="M2.12433 127.289C2.69603 127.642 2.97774 128.397 2.86175 129.076C2.78718 129.497 2.56346 129.909 2.1989 130.124C1.70176 130.424 1.02234 130.287 0.599776 129.874C0.0777824 129.368 -0.212214 128.268 0.185495 127.59C0.533491 127.006 1.61891 126.972 2.12433 127.281V127.289Z" fill="#F4F8FB"/>
<path d="M412.238 171.243C412.809 171.595 413.091 172.35 412.975 173.029C412.9 173.45 412.677 173.862 412.312 174.077C411.815 174.377 411.136 174.24 410.713 173.828C410.191 173.321 409.901 172.222 410.299 171.543C410.647 170.959 411.732 170.925 412.238 171.234V171.243Z" fill="#F4F8FB"/>
</g>
</svg>
