<svg width="34" height="34" viewBox="0 0 34 34" fill="none" xmlns="http://www.w3.org/2000/svg">
<path d="M22.6742 22.4642C26.2922 16.787 25.8374 17.4953 25.9416 17.3472C27.2589 15.4893 27.9551 13.3026 27.9551 11.0234C27.9551 4.97914 23.0502 0 16.998 0C10.9656 0 6.04102 4.96931 6.04102 11.0234C6.04102 13.3012 6.75183 15.5451 8.11223 17.4281L11.3218 22.4643C7.89023 22.9916 2.05664 24.5631 2.05664 28.0234C2.05664 29.2848 2.87995 31.0824 6.80216 32.4832C9.54089 33.4613 13.1618 34 16.998 34C24.1716 34 31.9395 31.9765 31.9395 28.0234C31.9395 24.5625 26.1127 22.9927 22.6742 22.4642ZM9.7763 16.3323C9.76534 16.3152 9.75392 16.2984 9.74197 16.2819C8.60994 14.7246 8.0332 12.8789 8.0332 11.0234C8.0332 6.04177 12.0445 1.99219 16.998 1.99219C21.9413 1.99219 25.9629 6.04357 25.9629 11.0234C25.9629 12.8819 25.397 14.665 24.3262 16.1813C24.2303 16.3078 24.7309 15.5301 16.998 27.6641L9.7763 16.3323ZM16.998 32.0078C9.16251 32.0078 4.04883 29.7046 4.04883 28.0234C4.04883 26.8935 6.67639 25.0355 12.4989 24.3113L16.158 30.0529C16.3409 30.34 16.6576 30.5137 16.998 30.5137C17.3383 30.5137 17.6551 30.3399 17.838 30.0529L21.497 24.3113C27.3196 25.0355 29.9473 26.8935 29.9473 28.0234C29.9473 29.6904 24.8796 32.0078 16.998 32.0078Z" fill="#466C8A"/>
<path d="M17 6.04395C14.2538 6.04395 12.0195 8.27818 12.0195 11.0244C12.0195 13.7706 14.2538 16.0049 17 16.0049C19.7462 16.0049 21.9805 13.7706 21.9805 11.0244C21.9805 8.27818 19.7462 6.04395 17 6.04395ZM17 14.0127C15.3523 14.0127 14.0117 12.6722 14.0117 11.0244C14.0117 9.37668 15.3523 8.03613 17 8.03613C18.6477 8.03613 19.9883 9.37668 19.9883 11.0244C19.9883 12.6722 18.6477 14.0127 17 14.0127Z" fill="#466C8A"/>
</svg>
