<svg width="24" height="25" viewBox="0 0 24 25" fill="none" xmlns="http://www.w3.org/2000/svg">
<path d="M22.8508 8.12377V1.5H16.2139" stroke="white" stroke-width="1.5" stroke-linecap="round" stroke-linejoin="round"/>
<path d="M16.2139 8.12377L22.8508 1.5" stroke="white" stroke-width="1.5" stroke-linecap="round" stroke-linejoin="round"/>
<path d="M22.8504 17.9712V21.2831C22.8516 21.5906 22.7885 21.8949 22.6651 22.1766C22.5417 22.4583 22.3607 22.7112 22.1337 22.919C21.9067 23.1269 21.6387 23.2851 21.3469 23.3836C21.055 23.4821 20.7458 23.5187 20.439 23.491C17.0352 23.1219 13.7655 21.9611 10.8929 20.1019C8.22021 18.4069 5.95426 16.1455 4.25595 13.4781C2.38652 10.5981 1.22314 7.31909 0.860053 3.90675C0.83241 3.60146 0.868763 3.29378 0.966797 3.00329C1.06483 2.7128 1.2224 2.44586 1.42946 2.21947C1.63653 1.99308 1.88856 1.81221 2.16951 1.68836C2.45046 1.56451 2.75416 1.5004 3.0613 1.50011H6.37976C6.91658 1.49483 7.43701 1.68456 7.84405 2.03391C8.25108 2.38326 8.51694 2.86841 8.59207 3.39892C8.73213 4.4588 8.99189 5.49946 9.36638 6.50106C9.5152 6.89619 9.54741 7.32562 9.45919 7.73847C9.37097 8.15131 9.16601 8.53026 8.86861 8.83042L7.46379 10.2324C9.03846 12.9963 11.3314 15.2847 14.1007 16.8562L15.5055 15.4542C15.8063 15.1574 16.186 14.9528 16.5996 14.8648C17.0133 14.7767 17.4436 14.8089 17.8395 14.9574C18.8431 15.3312 19.8858 15.5904 20.9478 15.7302C21.4851 15.8058 21.9759 16.076 22.3267 16.4892C22.6775 16.9024 22.8639 17.4298 22.8504 17.9712Z" stroke="white" stroke-width="1.5" stroke-linecap="round" stroke-linejoin="round"/>
</svg>
