<svg width="214" height="321" viewBox="0 0 214 321" fill="none" xmlns="http://www.w3.org/2000/svg">
<g opacity="0.5">
<path d="M166.613 307.555C166.613 307.555 175.283 306.954 175.573 297.968V291.676C175.573 291.676 176.153 307.265 182.803 306.363C182.803 306.363 174.703 315.651 176.443 320.45C176.443 320.45 174.993 309.96 166.613 307.566V307.555Z" fill="#F4F8FB"/>
<path d="M23.6328 182.3C23.6328 182.3 32.3028 181.698 32.5928 172.712V166.42C32.5928 166.42 33.1728 182.009 39.8228 181.108C39.8228 181.108 31.7228 190.395 33.4628 195.194C33.4628 195.194 32.0128 184.704 23.6328 182.31V182.3Z" fill="#F4F8FB"/>
<path d="M118.043 16.6199C118.043 16.6199 126.713 16.0187 127.003 7.03197V0.740234C127.003 0.740234 127.583 16.3296 134.233 15.4279C134.233 15.4279 126.133 24.7152 127.873 29.5143C127.873 29.5143 126.423 19.0246 118.043 16.6302V16.6199Z" fill="#F4F8FB"/>
<path d="M4.47251 21.3574C5.67251 22.1037 6.27249 23.6896 6.02249 25.1096C5.87249 26.001 5.39248 26.8614 4.63248 27.3174C3.58248 27.9497 2.15248 27.6595 1.26248 26.7992C0.162483 25.7315 -0.447512 23.4097 0.392488 22C1.12249 20.7769 3.4125 20.7044 4.4625 21.3574H4.47251Z" fill="#F4F8FB"/>
<path d="M119.753 225.946C120.733 226.558 121.223 227.854 121.023 229.025C120.893 229.761 120.503 230.466 119.883 230.839C119.023 231.357 117.843 231.119 117.113 230.414C116.203 229.533 115.713 227.636 116.403 226.465C117.003 225.459 118.883 225.397 119.753 225.936V225.946Z" fill="#F4F8FB"/>
<path d="M212.023 16.8792C212.823 17.3767 213.213 18.4236 213.053 19.3773C212.953 19.9681 212.633 20.5382 212.133 20.8491C211.433 21.2741 210.483 21.0772 209.893 20.5071C209.163 19.7919 208.763 18.2578 209.313 17.3146C209.793 16.4957 211.313 16.4542 212.023 16.8896V16.8792Z" fill="#F4F8FB"/>
</g>
</svg>
