<svg width="1920" height="598" viewBox="0 0 1920 598" fill="none" xmlns="http://www.w3.org/2000/svg">
<mask id="mask0_547_149" style="mask-type:alpha" maskUnits="userSpaceOnUse" x="0" y="0" width="1920" height="598">
<rect y="0.480469" width="1920" height="597" fill="#D9D9D9"/>
</mask>
<g mask="url(#mask0_547_149)">
<rect y="0.480469" width="1920" height="1025" fill="#E8EFF6"/>
<g opacity="0.06">
<path d="M590.862 575.232C568.692 575.232 550.67 557.464 550.67 535.605C550.67 513.747 568.692 495.979 590.862 495.979C613.032 495.979 631.055 513.747 631.055 535.605C631.055 557.464 613.032 575.232 590.862 575.232ZM590.862 501.923C572.02 501.923 556.699 517.028 556.699 535.605C556.699 554.182 572.02 569.288 590.862 569.288C609.704 569.288 625.026 554.182 625.026 535.605C625.026 517.028 609.704 501.923 590.862 501.923Z" fill="#69A5C7"/>
<path d="M447.777 177.377C430.044 177.377 415.623 163.159 415.623 145.675C415.623 128.192 430.044 113.974 447.777 113.974C465.51 113.974 479.931 128.192 479.931 145.675C479.931 163.159 465.51 177.377 447.777 177.377ZM447.777 119.918C433.372 119.918 421.652 131.473 421.652 145.675C421.652 159.877 433.372 171.433 447.777 171.433C462.182 171.433 473.902 159.877 473.902 145.675C473.902 131.473 462.182 119.918 447.777 119.918Z" fill="#69A5C7"/>
<path d="M43.1538 60.3317C25.421 60.3317 11 46.1136 11 28.6302C11 11.1468 25.421 -3.07129 43.1538 -3.07129C60.8867 -3.07129 75.3077 11.1468 75.3077 28.6302C75.3077 46.1136 60.8867 60.3317 43.1538 60.3317ZM43.1538 2.87274C28.7489 2.87274 17.0288 14.4279 17.0288 28.6302C17.0288 42.8325 28.7489 54.3877 43.1538 54.3877C57.5588 54.3877 69.2788 42.8325 69.2788 28.6302C69.2788 14.4279 57.5588 2.87274 43.1538 2.87274Z" fill="#69A5C7"/>
<path d="M240.385 602.175C227.089 602.175 216.27 591.508 216.27 578.399C216.27 565.291 227.089 554.623 240.385 554.623C253.681 554.623 264.5 565.291 264.5 578.399C264.5 591.508 253.681 602.175 240.385 602.175ZM240.385 560.567C230.417 560.567 222.298 568.572 222.298 578.399C222.298 588.227 230.417 596.231 240.385 596.231C250.353 596.231 258.471 588.227 258.471 578.399C258.471 568.572 250.353 560.567 240.385 560.567Z" fill="#69A5C7"/>
<path d="M964.651 541.943C953.574 541.943 944.555 533.051 944.555 522.13C944.555 511.209 953.574 502.316 964.651 502.316C975.728 502.316 984.747 511.209 984.747 522.13C984.747 533.051 975.728 541.943 964.651 541.943ZM964.651 508.26C956.886 508.26 950.584 514.474 950.584 522.13C950.584 529.786 956.886 535.999 964.651 535.999C972.416 535.999 978.718 529.786 978.718 522.13C978.718 514.474 972.416 508.26 964.651 508.26Z" fill="#69A5C7"/>
<path d="M110.965 99.707C99.8883 99.707 90.8691 90.8147 90.8691 79.8935C90.8691 68.9723 99.8883 60.0801 110.965 60.0801C122.042 60.0801 131.061 68.9723 131.061 79.8935C131.061 90.8147 122.042 99.707 110.965 99.707ZM110.965 66.0241C103.2 66.0241 96.898 72.2376 96.898 79.8935C96.898 87.5494 103.2 93.7629 110.965 93.7629C118.73 93.7629 125.033 87.5494 125.033 79.8935C125.033 72.2376 118.73 66.0241 110.965 66.0241Z" fill="#69A5C7"/>
<path d="M1184.9 545.115C1173.83 545.115 1164.81 536.223 1164.81 525.302C1164.81 514.381 1173.83 505.488 1184.9 505.488C1195.98 505.488 1205 514.381 1205 525.302C1205 536.223 1195.98 545.115 1184.9 545.115ZM1184.9 511.432C1177.14 511.432 1170.84 517.646 1170.84 525.302C1170.84 532.958 1177.14 539.171 1184.9 539.171C1192.67 539.171 1198.97 532.958 1198.97 525.302C1198.97 517.646 1192.67 511.432 1184.9 511.432Z" fill="#69A5C7"/>
<path d="M763.737 2.24339C767.371 6.52309 774.541 7.26809 780.232 7.88627C784.042 8.28254 787.981 8.69465 790.57 9.88346C793.158 11.0723 796.02 13.7827 798.769 16.3981C802.901 20.2974 808.094 25.2111 813.753 25.2111C825.135 24.8783 833.479 6.55481 829.781 -18.9649C828.881 -25.1625 825.441 -40.3159 816.309 -44.5163C807.177 -48.7168 793.174 -41.5681 787.772 -38.2553C765.554 -24.6395 756.664 -6.55378 763.721 2.24339H763.737ZM813.769 -39.1271C818.222 -37.0823 822.177 -28.8082 823.833 -18.0614C826.18 -2.89225 823.399 12.1026 817.241 17.6186C813.528 20.9156 810.409 19.2037 802.949 12.1184C799.83 9.17018 796.663 6.14268 793.11 4.51006C789.573 2.87743 785.168 2.4336 780.875 1.97393C770.57 0.896076 767.242 -0.356121 767.419 -5.26986C767.757 -13.4647 777.628 -25.1943 790.923 -33.183C800.345 -38.8417 809.315 -41.1718 813.769 -39.1271Z" fill="#69A5C7"/>
<path d="M915.568 202.313H911.806C906.822 202.313 902.754 206.323 902.754 211.237C902.754 216.15 906.822 220.161 911.806 220.161H929.924C931.227 220.161 932.384 219.336 932.786 218.132L950.262 166.442C963.204 179.012 990.968 189.981 996.66 192.152C999.473 196.511 1002.53 199.856 1005.24 202.297H978.219C973.236 202.297 969.168 206.307 969.168 211.221C969.168 216.135 973.236 220.145 978.219 220.145H1038.6C1045.44 220.145 1051.21 215.643 1053.07 209.509C1066.11 214.47 1088.52 217.181 1108.51 217.181C1129.84 217.181 1150.32 214.407 1150.32 205.261C1150.32 197.51 1137.73 195.83 1116.87 193.04C1095.32 190.155 1065.81 186.208 1052.82 173.385C1029.38 150.275 993.46 62.1445 993.284 61.875L981.21 -9.56433C981.097 -10.1825 980.808 -10.7373 980.358 -11.1811L968.284 -23.085C967.416 -23.941 966.13 -24.1946 964.988 -23.7349C963.863 -23.2752 963.123 -22.1815 963.123 -20.9769V-12.0529H954.072C953.268 -12.0529 952.496 -11.7359 951.934 -11.1811L940.358 0.231449L904.796 11.9134C903.574 12.3256 902.738 13.4668 902.738 14.7349C902.738 26.6863 905.343 34.691 910.696 39.2084C917.545 44.994 927.063 43.504 934.683 42.3469C936.178 42.1091 937.625 41.8872 938.96 41.7287V73.5729C936.982 77.5673 926.886 98.4903 926.886 109.982C926.886 117.369 928.011 124.771 930.23 131.983C932.159 138.276 932.256 144.79 930.519 150.798L915.536 202.265L915.568 202.313ZM936.034 130.303C933.976 123.645 932.947 116.83 932.947 110.03C932.947 98.9658 944.587 75.8712 944.699 75.6335C944.908 75.2214 945.021 74.7617 945.021 74.302V38.5744C945.021 36.9259 943.67 35.5945 941.998 35.5945C939.506 35.5945 936.725 36.0224 933.767 36.4821C927.014 37.5283 919.378 38.7171 914.635 34.7068C911.034 31.6793 909.073 25.6878 908.815 16.8906L942.947 5.66825C943.397 5.52559 943.799 5.27198 944.12 4.95497L955.31 -6.07717H963.123V2.84682C963.123 4.49529 964.474 5.82676 966.146 5.82676C967.818 5.82676 969.168 4.49529 969.168 2.84682V-13.7806L975.406 -7.63054L987.496 63.4918C988.991 67.1533 1024.25 153.635 1048.56 177.617C1062.99 191.851 1092.41 195.798 1116.06 198.968C1127.51 200.49 1143.17 202.598 1144.29 205.277C1136.64 213.852 1075.53 212.917 1053.72 203.406V193.389C1053.72 191.74 1052.37 190.409 1050.69 190.409C1049.02 190.409 1047.67 191.74 1047.67 193.389V205.293C1047.67 210.222 1043.6 214.217 1038.62 214.217H978.236C976.58 214.217 975.213 212.885 975.213 211.237C975.213 209.588 976.564 208.257 978.236 208.257H1014.47C1015.87 208.257 1017.08 207.306 1017.42 205.974C1017.74 204.643 1017.08 203.248 1015.84 202.63C1014.92 202.17 993.348 190.964 993.348 157.661C993.348 156.013 991.997 154.681 990.325 154.681C988.653 154.681 987.303 156.013 987.303 157.661C987.303 168.313 989.345 176.951 992.287 183.862C979.57 178.537 961.548 170.247 952.464 160.007L956.966 146.708C957.496 145.155 956.644 143.459 955.069 142.936C953.445 142.397 951.773 143.253 951.242 144.806L927.77 214.217H911.838C910.182 214.217 908.815 212.885 908.815 211.237C908.815 209.588 910.166 208.257 911.838 208.257H917.883C919.233 208.257 920.423 207.385 920.777 206.101L936.387 152.478C938.445 145.361 938.333 137.705 936.066 130.303H936.034Z" fill="#69A5C7"/>
<path d="M681.519 370.046C685.474 366.274 687.323 360.076 687.323 350.55C687.323 349.139 686.31 347.919 684.895 347.649L670.924 344.907L662.548 333.97C662.259 333.606 661.905 333.304 661.471 333.098C654.687 329.77 650.024 328.819 646.343 330.087C642.098 331.529 640.185 335.492 638.159 339.676C635.507 345.177 632.227 352.024 622.517 356.764C612.694 361.55 597.758 359.965 584.559 358.539C575.508 357.572 567.26 356.684 560.846 357.73C542.309 357.841 536.537 381.713 536.28 382.727C535.91 384.328 536.939 385.881 538.563 386.278C539.93 386.61 541.778 385.834 542.18 384.059C542.212 383.932 543.981 376.751 548.322 370.95C548.322 371.061 548.29 371.156 548.29 371.267C548.29 393.3 537.196 404.585 537.068 404.696C536.28 405.489 535.991 406.662 536.344 407.724L547.052 439.203C548.29 442.833 551.746 445.274 555.653 445.274H569.431C574.431 445.274 578.498 441.296 578.498 436.398C578.498 431.5 574.431 427.521 569.431 427.521H562.727L560.621 419.295L576.971 397.944C589.607 398.213 597.662 401.859 604.784 405.077C609.398 407.169 613.498 409.023 617.999 409.578L620.346 437.127C620.732 441.692 624.703 445.274 629.382 445.274H641.954C646.954 445.274 651.021 441.296 651.021 436.398C651.021 431.5 646.954 427.521 641.954 427.521H638.931C638.996 391.556 640.362 374.247 660.088 374.247C661.278 374.247 662.484 374.279 663.674 374.31C670.104 374.453 676.744 374.627 681.503 370.078L681.519 370.046ZM681.23 352.959C680.972 359.252 679.654 363.563 677.307 365.798C674.349 368.62 669.477 368.493 663.85 368.366C662.613 368.335 661.375 368.303 660.121 368.303C632.918 368.303 632.918 394.377 632.918 430.454C632.918 432.086 634.269 433.418 635.941 433.418H641.986C643.658 433.418 645.008 434.749 645.008 436.382C645.008 438.014 643.658 439.346 641.986 439.346H629.414C627.854 439.346 626.536 438.157 626.407 436.635L623.851 406.535C623.722 404.997 622.404 403.824 620.845 403.824C616.504 403.824 612.469 402.002 607.356 399.687C599.768 396.264 590.331 391.984 575.508 391.984C574.559 391.984 573.659 392.428 573.08 393.173L554.945 416.854C554.399 417.567 554.206 418.486 554.431 419.342L557.453 431.183C557.791 432.498 558.997 433.434 560.379 433.434H569.447C571.119 433.434 572.469 434.765 572.469 436.398C572.469 438.03 571.119 439.362 569.447 439.362H555.669C554.367 439.362 553.209 438.553 552.807 437.333L542.647 407.486C545.942 403.555 554.351 391.524 554.351 371.283C554.351 368.747 555.01 366.94 556.376 365.735C560.701 361.978 571.955 363.167 583.916 364.451C597.919 365.957 613.851 367.669 625.234 362.073C636.809 356.399 640.764 348.204 643.658 342.213C645.426 338.551 646.6 336.284 648.352 335.698C650.185 335.048 653.497 335.872 658.175 338.091L666.809 349.361C667.259 349.948 667.902 350.344 668.641 350.487L681.278 352.959H681.23Z" fill="#69A5C7"/>
<path d="M402.102 -9.16956L350.768 -26.0823C349.707 -26.431 348.485 -26.1616 347.681 -25.369L334.032 -11.9117C331.878 -9.80358 329.161 -8.34531 326.267 -7.64788V-63.7437C326.267 -65.3763 324.917 -66.7236 323.245 -66.7236H250.786C249.13 -66.7236 247.763 -65.3922 247.763 -63.7437V16.6355H166.237C164.581 16.6355 163.215 17.9669 163.215 19.6154V91.0548C163.215 92.6874 164.565 94.0347 166.237 94.0347H247.763V174.414C247.763 176.046 249.114 177.394 250.786 177.394H323.245C324.9 177.394 326.267 176.062 326.267 174.414V94.0347H407.793C409.449 94.0347 410.816 92.7032 410.816 91.0548V2.70266C410.816 -2.68659 407.311 -7.44183 402.118 -9.16956H402.102ZM404.771 52.9495C404.771 53.5994 404.578 69.038 388.453 69.038C380.88 69.038 375.495 66.7238 372.022 61.9686C361.459 47.5444 371.893 16.1124 372.006 15.8112C372.52 14.2579 371.668 12.5618 370.093 12.0388C368.517 11.5315 366.797 12.3716 366.266 13.925C365.8 15.3357 354.771 48.5589 367.118 65.4558C371.749 71.7961 378.919 74.9979 388.453 74.9979C396.121 74.9979 401.314 72.2874 404.771 68.5942V88.0907H323.245C321.589 88.0907 320.222 89.4221 320.222 91.0706V171.45H253.792V91.0706C253.792 89.438 252.442 88.0907 250.77 88.0907H169.244V22.5954H250.77C252.426 22.5954 253.792 21.2639 253.792 19.6154V-60.7638H320.222V-7.18821H291.83C290.174 -7.18821 288.808 -5.85674 288.808 -4.20827V14.8443C288.808 26.3837 302.055 31.5986 314.868 36.655C325.817 40.9664 337.119 45.4204 337.119 52.9337C337.119 57.895 334.595 60.6371 331.106 64.4572C327.939 67.9285 324.37 71.8437 322.183 78.184C321.637 79.7373 322.457 81.4016 324.064 81.9564C325.833 82.5587 327.408 81.4809 327.891 80.1019C329.691 74.9504 332.682 71.6534 335.592 68.4674C339.305 64.3938 343.148 60.1933 343.148 52.9495C343.148 41.4102 329.9 36.1953 317.087 31.1389C306.139 26.8275 294.837 22.3734 294.837 14.8602V-1.22832H322.489C328.341 -1.22832 334.096 -3.59008 338.276 -7.69543L350.607 -19.853L400.173 -3.5267C402.954 -2.60735 404.755 -0.166336 404.755 2.6868V52.9337L404.771 52.9495Z" fill="#69A5C7"/>
<path d="M1085.89 368.459C1095.95 366.177 1101.14 352.91 1097.72 338.28C1094.29 323.649 1083.73 313.98 1073.67 316.263C1063.6 318.545 1058.41 331.813 1061.84 346.443C1065.26 361.073 1075.82 370.742 1085.89 368.459ZM1075.02 322.064C1081.56 320.574 1089.25 328.611 1091.83 339.611C1094.41 350.612 1091.06 361.168 1084.54 362.658C1077.99 364.148 1070.31 356.112 1067.72 345.111C1065.15 334.111 1068.49 323.554 1075.02 322.064Z" fill="#69A5C7"/>
<path d="M1056.19 349.022C1047.03 337.023 1033.38 332.427 1025.15 338.561C1016.9 344.679 1017.62 358.882 1026.79 370.881C1035.95 382.88 1049.6 387.476 1057.83 381.342C1066.08 375.224 1065.36 361.022 1056.19 349.022ZM1054.2 376.587C1048.84 380.565 1038.49 376.317 1031.59 367.298C1024.7 358.279 1023.41 347.295 1028.76 343.316C1034.12 339.338 1044.47 343.586 1051.37 352.605C1058.27 361.624 1059.55 372.608 1054.2 376.587Z" fill="#69A5C7"/>
<path d="M1119.63 342.573C1111.03 341.829 1103.43 351.022 1102.32 363.481C1101.21 375.955 1107.07 386.29 1115.68 387.035C1124.28 387.78 1131.88 378.586 1132.99 366.128C1134.1 353.653 1128.23 343.318 1119.63 342.573ZM1126.98 365.605C1126.19 374.449 1121.27 381.535 1116.21 381.107C1111.16 380.679 1107.54 372.833 1108.33 364.004C1109.12 355.159 1114.04 348.074 1119.1 348.502C1124.15 348.93 1127.77 356.776 1126.98 365.605Z" fill="#69A5C7"/>
<path d="M1043.41 390.572C1033.01 383.392 1020.98 383.233 1016.03 390.208C1011.08 397.182 1015.34 408.262 1025.74 415.442C1036.15 422.622 1048.17 422.781 1053.12 415.807C1058.07 408.832 1053.81 397.753 1043.41 390.572ZM1048.19 412.399C1045.28 416.488 1036.6 415.664 1029.22 410.56C1021.85 405.472 1018.07 397.705 1020.98 393.616C1023.89 389.526 1032.58 390.35 1039.96 395.454C1047.32 400.542 1051.1 408.309 1048.19 412.399Z" fill="#69A5C7"/>
<path d="M1103.36 387.349C1097.96 384.036 1083.94 376.871 1074.79 381.072C1065.64 385.272 1062.19 400.473 1061.3 406.686C1057.61 432.27 1065.97 450.641 1077.36 450.973C1083.04 450.973 1088.23 446.044 1092.38 442.145C1095.15 439.513 1098.01 436.803 1100.6 435.614C1103.2 434.425 1107.14 433.997 1110.95 433.601C1116.64 432.983 1123.81 432.222 1127.46 427.942C1134.52 419.113 1125.63 400.996 1103.38 387.349H1103.36ZM1110.29 427.673C1106 428.132 1101.59 428.576 1098.04 430.209C1094.49 431.842 1091.3 434.885 1088.18 437.833C1080.71 444.934 1077.59 446.646 1073.88 443.349C1067.7 437.817 1064.92 422.775 1067.27 407.574C1068.92 396.796 1072.88 388.521 1077.35 386.461C1081.82 384.4 1090.79 386.746 1100.23 392.421C1113.54 400.425 1123.44 412.187 1123.78 420.397C1123.96 425.327 1120.63 426.579 1110.29 427.673Z" fill="#69A5C7"/>
<path d="M1079.6 261.387C1011.34 261.387 955.809 316.135 955.809 383.438C955.809 450.74 1011.34 505.488 1079.6 505.488C1147.86 505.488 1203.39 450.74 1203.39 383.438C1203.39 316.135 1147.86 261.387 1079.6 261.387ZM1079.6 499.528C1014.67 499.528 961.854 447.443 961.854 383.438C961.854 319.432 1014.68 267.347 1079.6 267.347C1144.52 267.347 1197.35 319.432 1197.35 383.438C1197.35 447.443 1144.52 499.528 1079.6 499.528Z" fill="#69A5C7"/>
<path d="M664.22 310.524H893.686C898.766 310.524 902.737 306.593 902.737 301.6V277.19C902.737 265.65 895.261 255.363 884.12 251.623L818.735 230.208L819.635 194.956C826.275 189.931 830.278 182.212 830.278 173.732V143.837H833.301C838.381 143.837 842.352 139.906 842.352 134.913V123.01C842.352 118.001 838.365 114.086 833.301 114.086H830.278V99.2017C830.278 81.1477 815.375 66.4541 797.063 66.4541H760.826C742.514 66.4541 727.611 81.1477 727.611 99.2017V114.086H724.589C719.508 114.086 715.537 118.017 715.537 123.01V134.913C715.537 139.922 719.524 143.837 724.589 143.837H727.611V173.732C727.611 182.212 731.614 189.947 738.254 194.972L739.154 230.224L673.753 251.638C662.628 255.379 655.152 265.651 655.152 277.206V301.616C655.152 306.625 659.139 310.54 664.204 310.54L664.22 310.524ZM830.278 119.998H833.301C835.021 119.998 836.323 121.282 836.323 122.978V134.882C836.323 136.578 835.021 137.862 833.301 137.862H830.278V119.998ZM727.627 137.862H724.605C722.884 137.862 721.582 136.578 721.582 134.882V122.978C721.582 121.282 722.884 119.998 724.605 119.998H727.627V137.862ZM882.207 257.25C890.872 260.166 896.708 268.171 896.708 277.174V301.584C896.708 303.28 895.406 304.564 893.686 304.564H810.375L829.378 285.829C830.294 284.925 830.519 283.53 829.941 282.389L820.053 262.877H839.33C841.902 262.877 843.285 259.928 841.645 257.995L825.053 238.53L882.223 257.25H882.207ZM832.835 256.933H815.166C813.06 256.933 811.436 259.072 812.465 261.244L823.574 283.134L801.838 304.564H782.755C787.964 283.657 799.684 259.976 816.082 237.262L832.835 256.933ZM778.977 295.704C769.331 264.145 749.669 237.436 745.247 231.666L744.411 198.57L767.353 209.872C770.987 211.663 774.974 212.55 778.961 212.55C782.948 212.55 786.935 211.663 790.584 209.872L813.526 198.57L812.674 231.714L812.61 231.793C796.951 253.081 785.279 275.367 778.993 295.704H778.977ZM824.233 146.786C824.233 148.418 822.883 149.766 821.211 149.766H801.388C796.131 149.813 791.227 149.813 789.298 147.911C788.414 147.039 787.996 145.597 787.996 143.505V131.601C787.996 129.968 789.346 128.621 791.018 128.621H821.211C822.867 128.621 824.233 129.952 824.233 131.601V146.786ZM760.826 72.3664H797.063C811.549 72.3664 823.397 83.6205 824.169 97.7276C820.793 99.8516 808.156 105.621 779.909 96.3328C755.44 88.2964 741.293 90.8167 734.235 93.6857C736.807 81.5282 747.755 72.3664 760.842 72.3664H760.826ZM733.656 100.66C736.904 98.6153 749.492 92.8298 777.996 101.991C795.52 107.619 811.934 109.616 824.233 104.353V123.247C823.285 122.899 822.288 122.661 821.211 122.661H736.662C735.601 122.661 734.588 122.851 733.64 123.184V100.66H733.656ZM775.376 128.621H782.53C782.192 129.556 781.967 130.555 781.967 131.601V134.581H775.922V131.601C775.922 130.555 775.697 129.556 775.36 128.621H775.376ZM733.656 131.601C733.656 129.968 735.006 128.621 736.678 128.621H766.871C768.527 128.621 769.893 129.952 769.893 131.601V143.505C769.893 145.613 769.475 147.055 768.591 147.911C766.678 149.797 761.758 149.813 756.501 149.766H736.678C735.023 149.766 733.656 148.418 733.656 146.786V131.601ZM733.656 173.716V155.202C734.605 155.535 735.617 155.741 736.678 155.741H758.125C764.218 155.741 769.459 155.504 772.852 152.159C774.925 150.13 775.922 147.309 775.922 143.536V140.556H781.967V143.536C781.967 147.309 782.98 150.13 785.038 152.159C788.446 155.504 793.671 155.757 799.764 155.757H821.211C822.288 155.757 823.285 155.504 824.233 155.171V173.748C824.233 181.721 819.732 188.885 812.513 192.452L787.867 204.609C782.289 207.351 775.617 207.351 770.038 204.609L745.392 192.452C738.158 188.885 733.656 181.721 733.656 173.748V173.716ZM741.855 237.214C748.382 246.091 767.627 274.02 775.167 304.58H756.035L734.299 283.15L745.408 261.26C746.437 259.104 744.813 256.948 742.707 256.948H725.039L741.855 237.214ZM661.197 277.19C661.197 268.187 667.017 260.182 675.683 257.265L732.836 238.546L716.261 257.995C714.605 259.928 716.004 262.877 718.576 262.877H737.852L727.965 282.389C727.386 283.53 727.611 284.925 728.527 285.829L747.53 304.564H664.236C662.516 304.564 661.213 303.28 661.213 301.584V277.174L661.197 277.19Z" fill="#69A5C7"/>
<path d="M778.56 184.86C784.846 184.86 790.28 181.531 793.174 178.678C794.347 177.521 794.347 175.65 793.174 174.477C792 173.304 790.087 173.304 788.897 174.462C787.868 175.46 778.592 183.909 769.01 174.462C767.837 173.304 765.923 173.304 764.734 174.462C763.56 175.619 763.56 177.505 764.734 178.678C769.364 183.243 774.155 184.86 778.544 184.86H778.56Z" fill="#69A5C7"/>
<path d="M851.421 286.715H860.472V295.639C860.472 297.288 861.823 298.619 863.495 298.619C865.167 298.619 866.517 297.288 866.517 295.639V286.715H875.568C877.24 286.715 878.591 285.384 878.591 283.735C878.591 282.087 877.24 280.755 875.568 280.755H866.517V271.832C866.517 270.183 865.167 268.852 863.495 268.852C861.823 268.852 860.472 270.183 860.472 271.832V280.755H851.421C849.749 280.755 848.398 282.087 848.398 283.735C848.398 285.384 849.749 286.715 851.421 286.715Z" fill="#69A5C7"/>
<path d="M748.768 142.175H758.833C760.505 142.175 761.855 140.843 761.855 139.195C761.855 137.546 760.505 136.215 758.833 136.215H748.768C747.096 136.215 745.746 137.546 745.746 139.195C745.746 140.843 747.096 142.175 748.768 142.175Z" fill="#69A5C7"/>
<path d="M809.153 136.23H799.089C797.433 136.23 796.066 137.562 796.066 139.21C796.066 140.859 797.417 142.19 799.089 142.19H809.153C810.809 142.19 812.175 140.859 812.175 139.21C812.175 137.562 810.825 136.23 809.153 136.23Z" fill="#69A5C7"/>
<path d="M586.842 121.899C551.826 121.899 523.338 149.955 523.338 184.431C523.338 211.599 541.039 234.773 565.668 243.38V297.589C565.668 311.268 576.311 318.433 586.842 318.433C597.372 318.433 608.015 311.268 608.015 297.589V243.38C632.661 234.773 650.346 211.599 650.346 184.431C650.346 149.955 621.857 121.899 586.842 121.899ZM601.954 297.605C601.954 307.829 594.125 312.489 586.842 312.489C579.559 312.489 571.729 307.829 571.729 297.605V257.566C576.842 258.422 581.906 258.897 586.842 258.897C591.777 258.897 596.858 258.422 601.954 257.566V297.605ZM601.954 251.527C591.761 253.366 581.906 253.366 571.713 251.527V245.171C576.569 246.344 581.617 246.978 586.826 246.978C592.035 246.978 597.099 246.344 601.938 245.171V251.527H601.954ZM586.842 241.018C555.154 241.018 529.383 215.641 529.383 184.431C529.383 153.221 555.154 127.843 586.842 127.843C618.529 127.843 644.301 153.221 644.301 184.431C644.301 215.641 618.529 241.018 586.842 241.018Z" fill="#69A5C7"/>
<path d="M586.842 133.818C558.498 133.818 535.428 156.532 535.428 184.446C535.428 212.359 558.498 235.073 586.842 235.073C615.185 235.073 638.256 212.359 638.256 184.446C638.256 156.532 615.185 133.818 586.842 133.818ZM586.842 229.113C561.826 229.113 541.489 209.062 541.489 184.446C541.489 159.829 561.842 139.778 586.842 139.778C611.841 139.778 632.195 159.829 632.195 184.446C632.195 209.062 611.841 229.113 586.842 229.113Z" fill="#69A5C7"/>
<path d="M571.584 -33.4551C549.286 -33.4551 523.498 -8.52185 508.965 14.6361C493.467 39.3316 488.772 63.0285 496.377 78.0074C505.556 96.109 526.81 90.1015 545.556 84.8391C554.591 82.2871 563.948 79.6559 571.584 79.6559C579.221 79.6559 588.562 82.2871 597.613 84.8391C606.825 87.4228 616.632 90.1808 625.329 90.1808C634.027 90.1808 642.13 87.2167 646.808 78.0074C654.413 63.0126 649.718 39.3316 634.22 14.6361C619.686 -8.52185 593.899 -33.4551 571.6 -33.4551H571.584ZM641.39 75.3603C634.96 88.0726 620.539 85.1086 599.269 79.117C589.832 76.4541 580.073 73.7119 571.584 73.7119C563.096 73.7119 553.337 76.4699 543.9 79.117C522.63 85.1244 508.225 88.0726 501.778 75.3603C495.219 62.4261 499.93 40.3619 514.109 17.7745C530.813 -8.88642 554.462 -27.4952 571.584 -27.4952C588.706 -27.4952 612.339 -8.88642 629.059 17.7745C643.239 40.3619 647.95 62.4261 641.39 75.3603Z" fill="#69A5C7"/>
<path d="M503.483 -45.4038C491.361 -65.455 471.313 -75.3458 458.211 -67.2778C443.147 -58.021 446.137 -34.1022 456.185 -17.6332C465.815 -1.84589 485.59 13.3391 501.474 4.24081C514.818 -3.41511 515.637 -25.3526 503.499 -45.4038H503.483ZM498.355 -0.863144C488.966 4.71632 472.519 -2.97129 461.362 -20.6766C452.278 -35.1008 450.462 -56.3883 461.297 -62.1739C473.757 -68.8312 490.332 -55.5324 498.291 -42.3604C508.339 -25.7488 508.339 -6.80717 498.355 -0.863144Z" fill="#69A5C7"/>
<path d="M684.927 -67.2941C671.809 -75.3463 651.761 -65.4713 639.655 -45.4201C627.517 -25.3689 628.337 -3.4156 641.68 4.22446C657.548 13.3228 677.339 -1.86221 686.969 -17.6496C697.017 -34.1343 700.008 -58.0373 684.943 -67.2941H684.927ZM681.76 -20.6929C670.603 -2.98763 654.14 4.69998 644.767 -0.879486C634.8 -6.80767 634.8 -25.7652 644.832 -42.3767C652.79 -55.5487 669.365 -68.8317 681.825 -62.1902C692.66 -56.4047 690.844 -35.133 681.76 -20.6929Z" fill="#69A5C7"/>
<path d="M601.763 14.8119H586.667V-2.05325C586.667 -3.68588 585.316 -5.0332 583.644 -5.0332H559.497C557.825 -5.0332 556.474 -3.70173 556.474 -2.05325V14.8119H541.378C539.706 14.8119 538.355 16.1434 538.355 17.7919V37.637C538.355 39.2696 539.706 40.617 541.378 40.617H556.474V57.4822C556.474 59.1148 557.825 60.4621 559.497 60.4621H583.644C585.316 60.4621 586.667 59.1306 586.667 57.4822V40.617H601.763C603.435 40.617 604.785 39.2855 604.785 37.637V17.7919C604.785 16.1593 603.435 14.8119 601.763 14.8119ZM598.74 34.6571H583.644C581.972 34.6571 580.622 35.9885 580.622 37.637V54.5022H562.503V37.637C562.503 36.0044 561.153 34.6571 559.481 34.6571H544.384V20.756H559.481C561.153 20.756 562.503 19.4245 562.503 17.776V0.910829H580.622V17.776C580.622 19.4087 581.972 20.756 583.644 20.756H598.74V34.6571Z" fill="#69A5C7"/>
<path d="M198.585 401.493C198.585 399.86 197.234 398.513 195.562 398.513C193.89 398.513 192.54 399.845 192.54 401.493C192.54 418.58 179.469 425.57 147.428 425.602C130.306 422.337 105.564 422.337 74.7762 422.337C39.3266 422.337 30.1949 409.83 22.8478 399.781C17.8961 393.013 13.2177 386.625 2.31753 386.625C-18.9844 386.625 -23.5824 399.591 -24.5792 405.075L-46.7171 410.544C-48.0675 410.877 -49 412.065 -49 413.429C-49 420.133 -47.1672 425.015 -43.5499 427.964C-37.3442 433.02 -27.7463 431.213 -19.2738 429.628C-16.9587 429.184 -14.7401 428.788 -12.7626 428.55V449.156C-12.7626 451.851 -11.5086 454.102 -9.20962 455.465C-7.44115 456.527 -5.11001 457.066 -2.23224 457.066C-0.303009 457.066 1.8513 456.796 4.06991 456.352C17.1244 474.803 30.9345 485.248 45.1625 487.436L46.7863 493.808H44.6159C39.616 493.808 35.5646 497.818 35.5646 502.732C35.5646 503.778 35.7897 504.777 36.1273 505.712H-45.9454C-47.6013 505.712 -48.9679 507.043 -48.9679 508.692V532.499C-48.9679 534.132 -47.6174 535.479 -45.9454 535.479H-30.8492V627.762C-30.8492 629.395 -29.4987 630.742 -27.8267 630.742H-3.67915C-2.02323 630.742 -0.656681 629.411 -0.656681 627.762V559.287H150.306V627.762C150.306 629.395 151.656 630.742 153.328 630.742H177.476C179.132 630.742 180.498 629.411 180.498 627.762V535.479H195.594C197.25 535.479 198.617 534.148 198.617 532.499V508.692C198.617 507.059 197.266 505.712 195.594 505.712H164.244L174.148 486.199C174.357 485.787 174.469 485.343 174.469 484.868V449.14C174.469 440.676 170.707 434.891 163.633 430.928C179.855 429.263 198.633 423.24 198.633 401.509L198.585 401.493ZM10.2274 454.625C20.0343 451.201 29.5036 444.528 29.5036 437.221C29.5036 424.239 17.0762 411.828 16.5456 411.305C15.372 410.147 13.4588 410.147 12.2692 411.305C11.0795 412.462 11.0955 414.348 12.2692 415.521C12.3817 415.632 23.4587 426.712 23.4587 437.236C23.4587 442.8 8.07308 451.09 -2.24831 451.09C-4.53123 451.09 -6.73378 450.646 -6.73378 449.14V413.413C-6.73378 411.78 -8.08423 410.433 -9.75623 410.433C-11.4282 410.433 -12.7787 411.764 -12.7787 413.413V422.527C-15.1581 422.781 -17.7304 423.256 -20.4152 423.763C-27.5695 425.111 -35.6883 426.632 -39.7075 423.367C-41.5082 421.893 -42.5692 419.325 -42.8747 415.711L-21.1065 410.338C-19.7561 410.005 -18.8236 408.816 -18.8236 407.453C-18.8236 406.851 -18.5825 392.569 2.31753 392.569C10.1309 392.569 13.2338 396.833 17.9443 403.268C23.314 410.607 30.0663 419.832 46.6416 424.778C43.5227 445.273 31.7865 461.52 21.2722 467.559C17.5585 463.929 13.8608 459.634 10.2113 454.625H10.2274ZM-6.73378 624.767H-24.8525V559.271H-6.73378V624.767ZM174.421 624.767H156.302V559.271H174.421V624.767ZM174.421 553.327H-24.8525V535.464H174.421V553.327ZM192.54 511.656V529.519H-42.9551V511.656H192.556H192.54ZM132.685 505.696H66.8825C66.8825 505.696 66.9307 505.601 66.9468 505.553L73.683 485.613C83.8114 483.489 91.4158 480.16 99.3739 476.641C107.991 472.821 116.914 468.89 129.743 466.449C132.09 467.797 134.631 468.811 137.09 469.794C144.261 472.647 149.968 474.898 150.241 484.17L145.37 493.792H141.19C136.11 493.792 132.139 497.707 132.139 502.716C132.139 503.778 132.348 504.761 132.669 505.696H132.685ZM168.376 449.14V484.17L158.28 504.079C157.765 505.078 156.736 505.712 155.595 505.712H141.19C139.47 505.712 138.168 504.428 138.168 502.732C138.168 501.036 139.47 499.752 141.19 499.752H147.235C148.376 499.752 149.421 499.118 149.936 498.103L155.981 486.199C156.19 485.787 156.302 485.343 156.302 484.868C156.302 470.999 146.913 467.258 139.373 464.278C136.672 463.216 134.132 462.201 131.978 460.822C131.978 460.822 131.962 460.806 131.946 460.806C129.052 459.015 126.11 456.226 126.11 449.156C126.11 447.524 124.759 446.176 123.087 446.176C121.415 446.176 120.065 447.508 120.065 449.156C120.065 454.324 121.303 458.397 123.891 461.631C112.862 464.199 104.76 467.765 96.9141 471.236C90.2101 474.2 83.7954 477.006 75.9338 479.003L77.654 473.899C78.0077 472.837 77.7344 471.648 76.9305 470.856L64.8568 458.952C63.6832 457.795 61.77 457.795 60.5803 458.952C59.3906 460.109 59.4067 461.995 60.5803 463.168L71.3358 473.772L61.2234 503.699C60.8215 504.903 59.68 505.712 58.3938 505.712H44.6159C42.96 505.712 41.5935 504.38 41.5935 502.732C41.5935 501.083 42.9439 499.752 44.6159 499.752H50.6609C51.5933 499.752 52.4775 499.34 53.0402 498.611C53.619 497.881 53.8119 496.93 53.5868 496.059L47.5419 472.251C47.14 470.65 45.5002 469.62 43.8764 470.095C42.2526 470.491 41.2719 472.108 41.6738 473.693L43.5388 481.032C37.6385 479.621 31.7544 476.53 25.9345 471.759C37.4135 464.31 49.1657 447.555 52.5579 426.299C58.7315 427.583 66.0304 428.328 74.8084 428.328C133.184 428.328 168.408 428.328 168.408 449.172L168.376 449.14Z" fill="#69A5C7"/>
<path d="M905.905 477.228C905.744 475.373 902.721 450.884 898.461 428.186L899.699 430.611C900.245 431.689 901.371 432.354 902.577 432.259C903.782 432.196 904.827 431.419 905.245 430.294L917.319 397.546C917.769 396.326 917.351 394.947 916.29 394.154L904.216 385.23C903.831 384.945 903.381 384.755 902.898 384.675L866.773 378.715C866.436 378.668 866.114 378.668 865.777 378.715L829.555 384.675C829.073 384.755 828.623 384.961 828.237 385.23L816.163 394.154C815.102 394.947 814.684 396.326 815.134 397.546L827.208 430.294C827.626 431.419 828.671 432.196 829.877 432.259C831.083 432.354 832.208 431.689 832.755 430.611L833.992 428.186C829.732 450.868 826.71 475.373 826.549 477.228C826.549 477.228 826.34 548.604 814.7 570.842C811.228 577.452 809.588 584.046 809.041 590.196C794.62 594.84 770.955 596.885 747.997 598.866C709.429 602.195 676.117 605.064 676.117 619.821C676.117 621.454 677.468 622.801 679.14 622.801H915.117C916.242 622.801 917.303 622.167 917.801 621.168C918.332 620.138 930.792 595.601 917.801 570.842C906.146 548.62 905.953 477.228 905.953 477.228H905.905ZM683.513 616.841C690.506 609.788 722.338 607.045 748.495 604.795C770.73 602.877 793.639 600.88 808.8 596.473C809.009 605.191 811.163 612.482 812.803 616.841H683.496H683.513ZM830.472 421.782L821.549 397.625L831.259 390.445L866.259 384.707L901.162 390.445L910.872 397.625L901.95 421.782L893.011 404.172C892.255 402.682 890.406 402.111 888.959 402.84C887.818 403.395 886.982 404.806 887.384 406.296C888.461 410.211 889.538 414.665 890.551 419.436L875.985 447.936L866.243 452.786L856.404 447.936L841.838 419.436C842.851 414.665 843.912 410.211 845.005 406.296C845.423 404.806 844.571 403.395 843.43 402.84C841.999 402.127 840.134 402.682 839.378 404.172L830.44 421.782H830.472ZM831.324 616.841H819.33C816.999 611.278 810.424 592.288 820.054 573.537C826.147 561.665 829.282 538.871 830.906 518.376L838.623 591.1C838.816 593.921 838.285 596.79 837.127 599.279L831.661 609.835C830.6 612.07 830.504 614.575 831.324 616.825V616.841ZM856.629 616.841C856.982 615.906 857.208 614.907 857.208 613.861V524.558C857.208 519.644 861.275 515.634 866.259 515.634C871.243 515.634 875.31 519.644 875.31 524.558L875.214 613.861C875.214 614.907 875.439 615.906 875.792 616.841H856.629ZM892.625 616.841H884.281C882.706 616.841 881.259 615.43 881.259 613.861L881.355 524.558C881.355 515.713 873.477 508.644 864.281 509.801C856.677 510.768 851.163 517.505 851.163 525.081V613.877C851.163 615.51 849.812 616.857 848.14 616.857H839.796C837.513 616.857 836.131 614.384 837.063 612.482L842.529 601.894C844.185 598.375 844.893 594.492 844.619 590.592L832.513 477.259C832.562 476.911 835.648 451.803 839.941 428.931L851.468 451.47C851.757 452.041 852.24 452.501 852.819 452.802L864.892 458.746C865.632 459.11 866.854 459.11 867.593 458.746L879.555 452.802C880.149 452.516 880.616 452.041 880.905 451.47L892.432 428.931C896.741 451.803 899.828 476.911 899.86 477.259L887.754 590.592C887.464 594.492 888.188 598.391 889.844 601.894L895.31 612.482C896.242 614.384 894.86 616.857 892.577 616.857L892.625 616.841ZM913.123 616.841H901.13C901.95 614.59 901.853 612.086 900.792 609.851L895.326 599.294C894.152 596.79 893.622 593.921 893.831 591.115L901.548 518.392C903.155 538.871 906.29 561.665 912.4 573.553C922.03 592.304 915.47 611.293 913.123 616.857V616.841Z" fill="#69A5C7"/>
<path d="M860.229 435.237H863.252V438.217C863.252 439.85 864.602 441.197 866.274 441.197C867.946 441.197 869.296 439.866 869.296 438.217V435.237H872.319C873.975 435.237 875.341 433.906 875.341 432.257C875.341 430.609 873.991 429.277 872.319 429.277H860.245C858.589 429.277 857.223 430.609 857.223 432.257C857.223 433.906 858.573 435.237 860.245 435.237H860.229Z" fill="#69A5C7"/>
<path d="M679.092 551.344H748.529V589.56C748.529 591.193 749.879 592.54 751.551 592.54C753.223 592.54 754.573 591.209 754.573 589.56V548.364C754.573 546.732 753.223 545.384 751.551 545.384H682.115V456.081H751.551C753.207 456.081 754.573 454.75 754.573 453.101V384.626H817.981C819.637 384.626 821.003 383.294 821.003 381.646C821.003 379.997 819.653 378.666 817.981 378.666H751.567C749.911 378.666 748.545 379.997 748.545 381.646V450.121H679.108C677.452 450.121 676.086 451.453 676.086 453.101V548.364C676.086 549.997 677.436 551.344 679.108 551.344H679.092Z" fill="#69A5C7"/>
<path d="M1102.59 576.36C1091.58 574.046 1081.82 587.25 1080.02 598.488C1077.9 607.317 1079.31 624.451 1092.08 627.511C1103.41 630.237 1112.57 616.13 1114.66 605.399C1117.56 590.531 1112.3 578.389 1102.59 576.36ZM1108.73 604.21C1107.28 612.453 1100.58 623.231 1093.28 621.678C1085.97 620.108 1084.04 607.856 1085.93 599.661C1088.27 587.947 1095.97 581.052 1101.38 582.193C1107.56 583.493 1110.81 592.354 1108.73 604.21Z" fill="#69A5C7"/>
<path d="M1054.25 627.507C1067.03 624.432 1068.44 607.298 1066.3 598.485C1064.5 587.262 1054.73 574.059 1043.73 576.357C1034.04 578.386 1028.78 590.543 1031.66 605.396C1033.75 616.142 1042.91 630.234 1054.25 627.507ZM1044.94 582.19C1050.36 581.049 1058.06 587.944 1060.39 599.657C1062.3 607.852 1060.36 620.105 1053.04 621.674C1045.73 623.243 1039.02 612.465 1037.59 604.207C1035.52 592.366 1038.76 583.49 1044.94 582.19Z" fill="#69A5C7"/>
<path d="M1036.92 572.285C1038.57 572.285 1039.94 570.953 1039.94 569.305V546.305H1106.38V569.305C1106.38 570.953 1107.73 572.285 1109.41 572.285C1111.08 572.285 1112.43 570.953 1112.43 569.305V543.341C1112.43 541.693 1111.08 540.361 1109.41 540.361H1036.92C1035.26 540.361 1033.89 541.693 1033.89 543.341V569.305C1033.89 570.953 1035.24 572.285 1036.92 572.285Z" fill="#69A5C7"/>
<path d="M482.134 238.466H418.727V217.622C418.727 209.411 411.959 202.738 403.631 202.738H331.172C322.844 202.738 316.076 209.411 316.076 217.622V238.466H252.669C247.669 238.466 243.617 242.476 243.617 247.39V425.996C243.617 430.926 247.685 434.92 252.669 434.92H255.691V437.9C255.691 442.909 259.678 446.824 264.742 446.824H288.89C293.97 446.824 297.941 442.893 297.941 437.9V434.92H436.83V437.9C436.83 442.909 440.817 446.824 445.881 446.824H470.028C475.109 446.824 479.08 442.893 479.08 437.9V434.92H482.102C487.102 434.92 491.154 430.91 491.154 425.996V247.39C491.154 242.46 487.086 238.466 482.102 238.466H482.134ZM322.105 217.622C322.105 212.693 326.172 208.698 331.156 208.698H403.615C408.615 208.698 412.666 212.708 412.666 217.622V238.466H406.621V221.204C406.621 217.654 403.583 214.658 399.981 214.658H334.757C331.156 214.658 328.117 217.654 328.117 221.204V238.466H322.073V217.622H322.105ZM400.608 221.189V238.45H334.178V221.189C334.178 220.935 334.516 220.602 334.773 220.602H399.997C400.255 220.602 400.592 220.935 400.592 221.189H400.608ZM291.912 437.9C291.912 439.596 290.61 440.88 288.89 440.88H264.742C263.022 440.88 261.72 439.596 261.72 437.9V434.92H291.912V437.9ZM473.067 437.9C473.067 439.596 471.765 440.88 470.045 440.88H445.897C444.177 440.88 442.875 439.596 442.875 437.9V434.92H473.067V437.9ZM485.141 425.996C485.141 427.629 483.79 428.976 482.118 428.976H252.652C250.996 428.976 249.63 427.645 249.63 425.996V247.39C249.63 245.757 250.98 244.41 252.652 244.41H482.118C483.774 244.41 485.141 245.741 485.141 247.39V425.996Z" fill="#69A5C7"/>
<path d="M386.298 325.55C397.632 328.277 406.78 314.185 408.87 303.439C411.748 288.586 406.507 276.445 396.812 274.416C385.816 272.117 376.041 285.305 374.24 296.528C372.118 305.341 373.533 322.475 386.298 325.55ZM380.157 297.716C382.488 286.003 390.173 279.108 395.607 280.249C401.78 281.549 405.028 290.409 402.954 302.25C401.507 310.492 394.819 321.271 387.504 319.701C380.189 318.132 378.26 305.88 380.157 297.701V297.716Z" fill="#69A5C7"/>
<path d="M348.47 325.553C361.235 322.478 362.65 305.36 360.528 296.531C358.727 285.308 348.969 272.105 337.956 274.419C328.261 276.448 323.004 288.59 325.898 303.442C327.988 314.173 337.136 328.264 348.47 325.553ZM339.162 280.252C344.58 279.111 352.264 286.006 354.612 297.704C356.509 305.899 354.579 318.151 347.264 319.705C339.949 321.274 333.261 310.495 331.814 302.253C329.741 290.412 332.988 281.552 339.162 280.252Z" fill="#69A5C7"/>
<path d="M330.416 330.182C326.252 323.223 317.04 316.027 309.194 320.497C302.972 324.032 302.104 333.764 307.731 343.496C311.799 350.518 321.38 357.619 328.937 353.181C335.287 349.456 335.898 339.359 330.4 330.182H330.416ZM325.866 348.077C322.844 349.837 316.702 346.793 312.94 340.453C308.985 333.812 309.355 327.249 312.297 325.617C316.509 323.255 322.747 329.009 325.239 333.241C329.242 340.041 328.792 346.381 325.882 348.077H325.866Z" fill="#69A5C7"/>
<path d="M425.574 320.496C417.729 316.042 408.533 323.223 404.353 330.181C398.854 339.375 399.449 349.456 405.816 353.181C413.372 357.619 422.97 350.518 427.021 343.496C432.648 333.748 431.796 324.031 425.558 320.496H425.574ZM421.844 340.453C418.082 346.777 411.941 349.836 408.919 348.077C406.009 346.381 405.559 340.04 409.562 333.24C412.054 329.008 418.291 323.254 422.504 325.616C425.446 327.265 425.815 333.811 421.861 340.453H421.844Z" fill="#69A5C7"/>
<path d="M367.393 336.934C356.075 336.934 343.535 348.854 336.123 360.662C328.422 372.947 326.155 384.835 330.03 392.491C332.602 397.579 336.879 399.164 341.67 399.164C346.123 399.164 351.01 397.785 355.383 396.548C359.595 395.36 363.968 394.123 367.393 394.123C370.817 394.123 375.19 395.344 379.402 396.548C388.486 399.1 399.788 402.271 404.755 392.491C408.63 384.835 406.363 372.931 398.662 360.662C391.251 348.854 378.711 336.918 367.393 336.918V336.934ZM399.354 389.844C396.814 394.868 390.736 393.584 381.058 390.842C376.444 389.542 371.669 388.195 367.393 388.195C363.116 388.195 358.341 389.542 353.727 390.842C344.033 393.584 337.988 394.868 335.432 389.844C332.538 384.137 334.773 374.151 341.252 363.801C348.84 351.691 359.837 342.894 367.377 342.894C374.917 342.894 385.913 351.691 393.518 363.801C399.997 374.151 402.247 384.122 399.338 389.844H399.354Z" fill="#69A5C7"/>
<path d="M449.851 596.345C440.14 598.295 434.755 611.055 437.793 625.368C441.105 641.06 451.635 649.35 460.365 647.48C471.555 645.086 474.931 630.567 472.423 618.457C469.448 604.128 459.545 594.427 449.851 596.345ZM459.159 641.647C450.655 642.994 445.06 631.042 443.709 624.195C441.603 613.48 444.883 603.462 451.057 602.194C457.568 600.847 464.4 609.739 466.506 619.662C468.613 629.648 465.574 640.648 459.159 641.662V641.647Z" fill="#69A5C7"/>
<path d="M520.703 625.383C523.725 611.07 518.339 598.294 508.645 596.361C498.951 594.443 489.047 604.143 486.073 618.472C483.565 630.582 486.941 645.102 498.131 647.495C506.861 649.366 517.391 641.076 520.703 625.383ZM491.989 619.645C494.079 609.723 500.912 600.846 507.439 602.178C513.613 603.446 516.892 613.479 514.786 624.179C513.436 631.042 507.841 642.978 499.337 641.63C492.922 640.616 489.883 629.616 491.989 619.63V619.645Z" fill="#69A5C7"/>
<path d="M298.069 721.059H433.662C435.318 721.059 436.685 719.727 436.685 718.079C436.685 716.43 435.334 715.099 433.662 715.099H301.092V482.901H452.022V515.649C452.022 517.392 453.485 518.629 455.044 518.629H488.243V592.462C488.243 594.11 489.594 595.442 491.266 595.442C492.938 595.442 494.288 594.11 494.288 592.462V515.649C494.288 514.856 493.967 514.096 493.404 513.541L457.183 477.813C456.62 477.258 455.848 476.941 455.044 476.941H298.069C296.413 476.941 295.047 478.273 295.047 479.921V718.063C295.047 719.712 296.397 721.043 298.069 721.043V721.059ZM458.067 487.118L483.983 512.669H458.067V487.118Z" fill="#69A5C7"/>
<path d="M370.511 500.766H346.363C344.707 500.766 343.341 502.097 343.341 503.746V524.589H322.216C320.56 524.589 319.193 525.921 319.193 527.569V551.377C319.193 553.026 320.544 554.357 322.216 554.357H343.341V575.201C343.341 576.849 344.691 578.181 346.363 578.181H370.511C372.167 578.181 373.533 576.849 373.533 575.201V554.357H394.658C396.314 554.357 397.681 553.026 397.681 551.377V527.569C397.681 525.921 396.33 524.589 394.658 524.589H373.533V503.746C373.533 502.097 372.183 500.766 370.511 500.766ZM391.636 530.533V548.397H370.511C368.855 548.397 367.488 549.729 367.488 551.377V572.221H349.37V551.377C349.37 549.729 348.019 548.397 346.347 548.397H325.222V530.533H346.347C348.003 530.533 349.37 529.202 349.37 527.553V506.71H367.488V527.553C367.488 529.202 368.839 530.533 370.511 530.533H391.636Z" fill="#69A5C7"/>
<path d="M418.808 518.63H442.955C444.611 518.63 445.978 517.298 445.978 515.65C445.978 514.001 444.627 512.67 442.955 512.67H418.808C417.152 512.67 415.785 514.001 415.785 515.65C415.785 517.298 417.136 518.63 418.808 518.63Z" fill="#69A5C7"/>
<path d="M418.808 542.456H467.103C468.759 542.456 470.125 541.125 470.125 539.476C470.125 537.828 468.775 536.496 467.103 536.496H418.808C417.152 536.496 415.785 537.828 415.785 539.476C415.785 541.125 417.136 542.456 418.808 542.456Z" fill="#69A5C7"/>
<path d="M418.808 566.265H467.103C468.759 566.265 470.125 564.933 470.125 563.285C470.125 561.636 468.775 560.305 467.103 560.305H418.808C417.152 560.305 415.785 561.636 415.785 563.285C415.785 564.933 417.136 566.265 418.808 566.265Z" fill="#69A5C7"/>
<path d="M479.19 601.989C480.846 601.989 482.213 600.658 482.213 599.009C482.213 597.361 480.862 596.029 479.19 596.029H473.499C471.843 596.029 470.477 597.361 470.477 599.009C470.477 600.658 471.827 601.989 473.499 601.989H479.19Z" fill="#69A5C7"/>
<path d="M322.216 601.989H432.696C434.352 601.989 435.719 600.658 435.719 599.009C435.719 597.361 434.368 596.029 432.696 596.029H322.216C320.56 596.029 319.193 597.361 319.193 599.009C319.193 600.658 320.544 601.989 322.216 601.989Z" fill="#69A5C7"/>
<path d="M21.8015 367.574H106.43C107.733 367.574 108.874 366.749 109.292 365.545C110.594 361.709 121.575 327.709 108.569 314.87C97.5399 303.996 97.3791 281.472 97.3791 281.25C97.3791 252.307 89.5818 238.358 86.077 233.54C89.2764 232.034 91.9612 230.021 94.0512 227.421C101.109 218.624 99.5656 206.356 98.0061 199.841C97.6846 198.446 97.6846 197.035 98.0383 195.656L103.312 174.813C103.794 172.91 102.331 171.104 100.353 171.104C92.8133 171.104 79.2443 174.163 76.672 185.147C69.2927 183.42 59.9842 183.103 51.6885 185.147C49.1162 174.163 35.5633 171.119 28.0072 171.104C26.0297 171.104 24.5667 172.91 25.049 174.813L30.3223 195.656C30.676 197.035 30.676 198.43 30.3544 199.841C28.795 206.371 27.2516 218.64 34.3094 227.421C36.3994 230.021 39.0842 232.034 42.2674 233.524C38.7627 238.327 30.9654 252.275 30.9654 281.219C30.9654 281.33 30.7081 292.948 19.2131 315.631C13.5701 326.758 12.8788 337.79 13.8916 346.682C6.68919 346.872 -0.770485 346.635 -7.49064 346.397C-22.8441 345.826 -36.1719 344.923 -36.1719 352.785C-36.1719 356.367 -36.1719 366.02 21.7694 367.574H21.8015ZM68.3763 361.614H60.0324C60.4826 360.409 60.7077 359.141 60.579 357.841L55.145 299.114C55.145 294.185 59.2125 290.19 64.1964 290.19C69.1802 290.19 73.2477 294.2 73.2637 298.861L67.8297 357.857C67.7172 359.157 67.9262 360.441 68.3763 361.63V361.614ZM104.308 319.07C112.54 327.202 107.524 350.851 104.228 361.614H97.1058C97.2827 360.758 97.3791 359.775 97.3791 358.65C97.3791 355.701 95.6428 353.752 94.0994 352.024C91.302 348.901 87.4597 344.606 91.2538 329.595C93.4242 321.036 94.8068 312.556 95.7232 305.122C97.6364 310.178 100.353 315.171 104.308 319.054V319.07ZM39.0842 223.728C33.393 216.643 35.2257 205.611 36.2707 201.188C36.8173 198.858 36.8013 196.496 36.2225 194.214L31.9621 177.396C37.2997 178.141 46.0937 180.63 46.1259 188.983C46.1259 191.361 48.457 192.343 50.1933 191.773C58.0871 189.205 69.5821 188.904 78.2637 191.773C80 192.343 82.315 191.361 82.3311 188.983C82.3633 180.63 91.1573 178.141 96.4949 177.396L92.2345 194.214C91.6557 196.512 91.6397 198.858 92.1863 201.188C93.2313 205.611 95.0641 216.643 89.3728 223.728C85.6751 228.325 79.2604 230.655 70.2734 230.655H58.1996C49.2287 230.655 42.798 228.325 39.1003 223.728H39.0842ZM48.3767 235.584C51.3348 236.25 54.5824 236.615 58.1675 236.615H70.2413C73.8264 236.615 77.074 236.25 80.0321 235.584C80.7877 236.377 91.3663 248.313 91.3663 281.266C91.3663 281.504 91.302 304.979 85.4179 328.169C80.852 346.207 86.1092 352.087 89.5979 355.971C90.8519 357.382 91.3663 358.016 91.3663 358.65C91.3663 361.186 91.3503 361.55 89.5014 361.614H76.7203C75.1126 361.534 73.6978 360.203 73.8586 358.38L79.3086 299.114C79.3086 290.903 72.5403 284.23 64.2285 284.23C55.9167 284.23 49.1484 290.903 49.1484 299.384L54.5823 358.38C54.7431 359.934 53.5695 361.534 51.7046 361.614H39.5344C37.6212 361.55 37.0585 361.043 37.0585 358.65C37.1067 358.333 37.9749 357.382 38.5376 356.748C41.962 352.991 47.7014 346.682 42.9909 328.153C37.1228 304.979 37.0424 281.472 37.0424 281.25C37.0424 248.772 47.2191 236.837 48.3767 235.568V235.584ZM24.6632 318.309C28.0072 311.7 30.4348 305.993 32.2194 301.159C33.0875 309.449 34.5666 319.482 37.1389 329.627C41.0617 345.097 37.0103 349.551 34.0521 352.801C32.557 354.433 31.0297 356.129 31.0297 358.665C31.0297 359.537 31.1422 360.583 31.3994 361.63H23.9397C21.6246 356.034 15.1617 337.077 24.6632 318.309ZM-7.66749 352.341C-0.609718 352.595 7.2519 352.88 14.8884 352.626C15.628 356.129 16.5444 359.093 17.3482 361.328C-21.3972 359.934 -30.0948 354.75 -30.2716 353.26C-28.4389 351.564 -16.4133 352.024 -7.66749 352.341Z" fill="#69A5C7"/>
<path d="M193.986 221.649C193.986 221.506 193.922 221.363 193.889 221.221C193.6 218.684 190.899 194.892 186.88 172.781L188.214 175.412C188.729 176.426 189.806 177.124 191.092 177.045C192.298 176.981 193.343 176.204 193.761 175.095L205.835 142.347C206.285 141.111 205.883 139.732 204.806 138.939L192.732 130.015C192.346 129.73 191.896 129.54 191.414 129.461L155.208 123.501C154.871 123.437 154.549 123.437 154.212 123.501L118.006 129.461C117.524 129.54 117.074 129.73 116.688 130.015L104.614 138.939C103.553 139.732 103.135 141.111 103.585 142.347L115.659 175.095C116.077 176.204 117.122 176.981 118.328 177.045C119.453 177.155 120.659 176.474 121.19 175.412L122.524 172.765C118.392 195.511 115.643 220.143 115.482 221.997L115.515 222.314C115.482 228.417 114.984 274.796 108.232 302.408C107.846 304.009 108.875 305.642 110.466 306.006C112.347 306.418 113.778 305.182 114.116 303.803C116.945 292.232 118.698 277.76 119.775 264.192L127.058 335.869C127.267 338.754 126.752 341.544 125.579 344.08L120.096 354.636C118.73 357.489 118.939 360.786 120.643 363.434C122.315 366.033 125.161 367.571 128.264 367.571L203.021 367.523C204.163 367.523 205.208 366.889 205.722 365.875C206.237 364.844 218.326 340.45 205.722 315.58C194.709 293.833 193.97 222.346 193.97 221.633L193.986 221.649ZM118.939 166.567L110.032 142.411L119.727 135.246L154.71 129.492L189.693 135.246L199.388 142.411L190.481 166.567L181.542 148.941C180.835 147.626 179.308 147.055 178.038 147.404C176.43 147.847 175.481 149.48 175.932 151.065C177.025 154.98 178.07 159.466 179.067 164.253L164.533 192.705L154.71 197.555L144.887 192.705L130.354 164.253C131.35 159.466 132.395 154.98 133.489 151.065C133.923 149.48 132.99 147.832 131.382 147.404C130.032 147.055 128.601 147.626 127.878 148.941L118.939 166.567ZM145.096 361.579C145.434 360.66 145.659 359.677 145.659 358.647V269.343C145.659 264.414 149.726 260.419 154.71 260.419C159.694 260.419 163.761 264.43 163.761 269.343V358.647C163.761 359.677 163.986 360.644 164.324 361.579H145.096ZM181.141 361.626H172.813C171.237 361.626 169.79 360.2 169.79 358.647V269.343C169.79 261.133 163.022 254.46 154.71 254.46C146.398 254.46 139.63 261.133 139.63 269.343V358.647C139.63 360.2 138.199 361.626 136.607 361.626H128.28C126.157 361.626 124.598 359.423 125.53 357.268L131.013 346.679C132.653 343.176 133.376 339.293 133.087 335.362L121.495 222.029C121.527 221.68 124.341 196.668 128.489 173.811L139.935 196.24C140.225 196.81 140.691 197.286 141.286 197.571L153.36 203.531C154.228 203.959 155.257 203.927 156.061 203.531L168.134 197.571C168.713 197.286 169.195 196.826 169.485 196.24L180.948 173.811C185.079 196.573 187.877 221.395 187.925 221.395L176.334 335.425C176.06 339.245 176.768 343.129 178.472 346.758L183.858 357.141C184.774 359.075 183.584 361.595 181.157 361.595L181.141 361.626ZM201.06 361.579H189.661C190.465 359.344 190.353 356.84 189.259 354.557L183.874 344.191C182.636 341.544 182.121 338.754 182.33 335.964L189.774 262.306C191.414 283.245 194.5 306.735 200.336 318.259C209.806 336.947 203.359 355.968 201.06 361.579Z" fill="#69A5C7"/>
<path d="M148.667 180.04H151.689V183.02C151.689 184.668 153.039 186 154.711 186C156.383 186 157.734 184.668 157.734 183.02V180.04H160.756C162.428 180.04 163.779 178.708 163.779 177.06C163.779 175.412 162.428 174.08 160.756 174.08H148.683C147.011 174.08 145.66 175.412 145.66 177.06C145.66 178.708 147.011 180.04 148.683 180.04H148.667Z" fill="#69A5C7"/>
</g>
<g opacity="0.06">
<path d="M1664.15 166.812C1646.42 166.812 1632 152.594 1632 135.111C1632 117.627 1646.42 103.409 1664.15 103.409C1681.89 103.409 1696.31 117.627 1696.31 135.111C1696.31 152.594 1681.89 166.812 1664.15 166.812ZM1664.15 109.353C1649.75 109.353 1638.03 120.908 1638.03 135.111C1638.03 149.313 1649.75 160.868 1664.15 160.868C1678.56 160.868 1690.28 149.313 1690.28 135.111C1690.28 120.908 1678.56 109.353 1664.15 109.353Z" fill="#69A5C7"/>
<path d="M1738.15 552.311C1720.42 552.311 1706 538.093 1706 520.61C1706 503.126 1720.42 488.908 1738.15 488.908C1755.89 488.908 1770.31 503.126 1770.31 520.61C1770.31 538.093 1755.89 552.311 1738.15 552.311ZM1738.15 494.852C1723.75 494.852 1712.03 506.407 1712.03 520.61C1712.03 534.812 1723.75 546.367 1738.15 546.367C1752.56 546.367 1764.28 534.812 1764.28 520.61C1764.28 506.407 1752.56 494.852 1738.15 494.852Z" fill="#69A5C7"/>
<path d="M1562.12 487.164C1548.82 487.164 1538 476.496 1538 463.387C1538 450.279 1548.82 439.611 1562.12 439.611C1575.41 439.611 1586.23 450.279 1586.23 463.387C1586.23 476.496 1575.41 487.164 1562.12 487.164ZM1562.12 445.555C1552.15 445.555 1544.03 453.56 1544.03 463.387C1544.03 473.215 1552.15 481.22 1562.12 481.22C1572.08 481.22 1580.2 473.215 1580.2 463.387C1580.2 453.56 1572.08 445.555 1562.12 445.555Z" fill="#69A5C7"/>
<path d="M1670.15 25.8745C1656.86 25.8745 1646.04 15.207 1646.04 2.09839C1646.04 -11.0102 1656.86 -21.6777 1670.15 -21.6777C1683.45 -21.6777 1694.27 -11.0102 1694.27 2.09839C1694.27 15.207 1683.45 25.8745 1670.15 25.8745ZM1670.15 -15.7337C1660.19 -15.7337 1652.07 -7.72907 1652.07 2.09839C1652.07 11.9259 1660.19 19.9305 1670.15 19.9305C1680.12 19.9305 1688.24 11.9259 1688.24 2.09839C1688.24 -7.72907 1680.12 -15.7337 1670.15 -15.7337Z" fill="#69A5C7"/>
<path d="M1653.12 252.513C1639.82 252.513 1629 241.846 1629 228.737C1629 215.628 1639.82 204.961 1653.12 204.961C1666.41 204.961 1677.23 215.628 1677.23 228.737C1677.23 241.846 1666.41 252.513 1653.12 252.513ZM1653.12 210.905C1643.15 210.905 1635.03 218.91 1635.03 228.737C1635.03 238.565 1643.15 246.569 1653.12 246.569C1663.08 246.569 1671.2 238.565 1671.2 228.737C1671.2 218.91 1663.08 210.905 1653.12 210.905Z" fill="#69A5C7"/>
<path d="M1342.1 318.533C1331.02 318.533 1322 309.641 1322 298.72C1322 287.799 1331.02 278.906 1342.1 278.906C1353.17 278.906 1362.19 287.799 1362.19 298.72C1362.19 309.641 1353.17 318.533 1342.1 318.533ZM1342.1 284.85C1334.33 284.85 1328.03 291.064 1328.03 298.72C1328.03 306.376 1334.33 312.589 1342.1 312.589C1349.86 312.589 1356.16 306.376 1356.16 298.72C1356.16 291.064 1349.86 284.85 1342.1 284.85Z" fill="#69A5C7"/>
<path d="M1560.97 170.072C1538.96 164.921 1507.29 171.3 1487.12 204.723C1466.92 171.3 1435.28 164.9 1413.27 170.072C1385.77 176.472 1368 199.788 1368 229.418C1368 293.506 1479.93 375.436 1484.69 378.862C1485.41 379.38 1486.27 379.66 1487.12 379.66C1487.97 379.66 1488.82 379.38 1489.55 378.862C1494.31 375.415 1606.24 293.506 1606.24 229.418C1606.24 199.767 1588.47 176.472 1560.97 170.072ZM1487.12 370.544C1470.64 358.111 1376.22 284.477 1376.22 229.44C1376.22 203.71 1391.5 183.497 1415.17 177.98C1435.62 173.175 1465.79 180.049 1483.45 215.002C1484.15 216.381 1485.63 217.071 1487.12 217.071C1488.61 217.071 1490.09 216.381 1490.79 215.002C1508.47 180.049 1538.61 173.175 1559.07 177.98C1582.72 183.497 1598.02 203.71 1598.02 229.44C1598.02 284.477 1503.6 358.111 1487.12 370.544Z" fill="#69A5C7"/>
<path d="M1332.32 204.05C1336.28 200.278 1338.13 194.08 1338.13 184.554C1338.13 183.143 1337.11 181.923 1335.7 181.653L1321.73 178.911L1313.35 167.974C1313.06 167.609 1312.71 167.308 1312.28 167.102C1305.49 163.774 1300.83 162.823 1297.15 164.091C1292.9 165.533 1290.99 169.496 1288.96 173.68C1286.31 179.181 1283.03 186.028 1273.32 190.767C1263.5 195.554 1248.56 193.969 1235.36 192.543C1226.31 191.576 1218.06 190.688 1211.65 191.734C1193.11 191.845 1187.34 215.716 1187.08 216.731C1186.71 218.332 1187.74 219.885 1189.37 220.282C1190.73 220.614 1192.58 219.838 1192.98 218.062C1193.02 217.936 1194.79 210.755 1199.13 204.954C1199.13 205.065 1199.09 205.16 1199.09 205.271C1199.09 227.303 1188 238.589 1187.87 238.7C1187.08 239.493 1186.8 240.666 1187.15 241.728L1197.86 273.207C1199.09 276.837 1202.55 279.278 1206.46 279.278H1220.24C1225.24 279.278 1229.3 275.299 1229.3 270.402C1229.3 265.504 1225.24 261.525 1220.24 261.525H1213.53L1211.43 253.299L1227.78 231.948C1240.41 232.217 1248.47 235.863 1255.59 239.08C1260.2 241.173 1264.3 243.027 1268.8 243.582L1271.15 271.131C1271.54 275.696 1275.51 279.278 1280.19 279.278H1292.76C1297.76 279.278 1301.83 275.299 1301.83 270.402C1301.83 265.504 1297.76 261.525 1292.76 261.525H1289.74C1289.8 225.56 1291.17 208.251 1310.89 208.251C1312.08 208.251 1313.29 208.282 1314.48 208.314C1320.91 208.457 1327.55 208.631 1332.31 204.082L1332.32 204.05ZM1332.03 186.963C1331.78 193.256 1330.46 197.567 1328.11 199.802C1325.15 202.624 1320.28 202.497 1314.66 202.37C1313.42 202.338 1312.18 202.307 1310.93 202.307C1283.72 202.307 1283.72 228.381 1283.72 264.458C1283.72 266.09 1285.07 267.422 1286.75 267.422H1292.79C1294.46 267.422 1295.81 268.753 1295.81 270.386C1295.81 272.018 1294.46 273.35 1292.79 273.35H1280.22C1278.66 273.35 1277.34 272.161 1277.21 270.639L1274.66 240.539C1274.53 239.001 1273.21 237.828 1271.65 237.828C1267.31 237.828 1263.27 236.005 1258.16 233.691C1250.57 230.267 1241.14 225.988 1226.31 225.988C1225.36 225.988 1224.46 226.432 1223.88 227.177L1205.75 250.858C1205.2 251.571 1205.01 252.49 1205.24 253.346L1208.26 265.187C1208.6 266.502 1209.8 267.438 1211.18 267.438H1220.25C1221.92 267.438 1223.27 268.769 1223.27 270.402C1223.27 272.034 1221.92 273.366 1220.25 273.366H1206.47C1205.17 273.366 1204.01 272.557 1203.61 271.337L1193.45 241.49C1196.75 237.559 1205.16 225.528 1205.16 205.287C1205.16 202.751 1205.81 200.944 1207.18 199.739C1211.51 195.982 1222.76 197.171 1234.72 198.455C1248.72 199.961 1264.66 201.673 1276.04 196.077C1287.61 190.403 1291.57 182.208 1294.46 176.216C1296.23 172.555 1297.4 170.288 1299.16 169.702C1300.99 169.052 1304.3 169.876 1308.98 172.095L1317.61 183.365C1318.06 183.952 1318.71 184.348 1319.45 184.491L1332.08 186.963H1332.03Z" fill="#69A5C7"/>
<path d="M1155.26 9.15532C1156.45 9.12362 1157.67 9.09195 1158.87 9.09195C1178.83 9.09195 1180.21 26.4961 1180.27 62.6675H1177.22C1172.17 62.6675 1168.05 66.6777 1168.05 71.5914C1168.05 76.5052 1172.17 80.5154 1177.22 80.5154H1189.93C1194.66 80.5154 1198.68 76.9174 1199.07 72.3365L1201.45 44.6293C1206.01 44.0587 1210.14 42.1883 1214.82 40.096C1222.04 36.8466 1230.18 33.185 1242.96 32.9156L1259.48 54.3776L1257.36 62.6516H1250.58C1245.53 62.6516 1241.41 66.6618 1241.41 71.5756C1241.41 76.4893 1245.53 80.4996 1250.58 80.4996H1264.52C1268.47 80.4996 1271.96 78.0427 1273.21 74.3971L1284.05 42.7431C1284.4 41.6811 1284.11 40.4923 1283.33 39.6998C1283.21 39.5888 1271.99 28.2396 1271.99 6.08027C1271.99 5.96931 1271.96 5.87429 1271.96 5.76333C1276.35 11.5964 1278.13 18.8243 1278.16 18.9511C1278.58 20.7264 1280.45 21.519 1281.83 21.1861C1283.47 20.7898 1284.5 19.2206 1284.13 17.6197C1283.87 16.6052 1278.04 -7.40865 1259.29 -7.51961C1252.81 -8.56576 1244.47 -7.67819 1235.32 -6.7113C1221.98 -5.28473 1206.86 -3.68372 1196.94 -8.50234C1187.14 -13.2734 1183.79 -20.1685 1181.12 -25.6846C1179.08 -29.9009 1177.15 -33.8795 1172.84 -35.3219C1169.11 -36.5899 1164.39 -35.6388 1157.54 -32.2943C1157.11 -32.0883 1156.74 -31.7871 1156.45 -31.4226L1147.99 -20.4221L1133.86 -17.6641C1132.43 -17.3788 1131.4 -16.1583 1131.4 -14.7475C1131.4 -5.15784 1133.26 1.0715 1137.27 4.85983C1142.07 9.4407 1148.79 9.26634 1155.29 9.12368L1155.26 9.15532ZM1235.96 -0.735535C1248.05 -2.01944 1259.44 -3.23996 1263.81 0.548374C1265.17 1.75303 1265.85 3.5759 1265.85 6.12787C1265.85 26.4802 1274.35 38.5743 1277.68 42.5211L1267.41 72.5425C1266.99 73.763 1265.82 74.5873 1264.52 74.5873H1250.58C1248.89 74.5873 1247.52 73.2558 1247.52 71.6073C1247.52 69.9588 1248.89 68.6274 1250.58 68.6274H1259.74C1261.14 68.6274 1262.36 67.6922 1262.7 66.3766L1265.75 54.4727C1265.98 53.6009 1265.79 52.6815 1265.24 51.9682L1246.9 28.1604C1246.32 27.4154 1245.42 26.9715 1244.45 26.9715C1229.45 26.9715 1219.92 31.2671 1212.25 34.7226C1207.09 37.0527 1203.01 38.8913 1198.62 38.8913C1197.02 38.8913 1195.71 40.0802 1195.58 41.6177L1192.99 71.8768C1192.86 73.3984 1191.53 74.6031 1189.95 74.6031H1177.23C1175.55 74.6031 1174.18 73.2717 1174.18 71.6232C1174.18 69.9747 1175.55 68.6432 1177.23 68.6432H1183.34C1185.03 68.6432 1186.4 67.3118 1186.4 65.6633C1186.4 45.2634 1186.4 28.0336 1181.51 16.8746C1187.43 12.1828 1192.14 4.35256 1195.1 -2.71688C1206.54 2.40292 1222.18 0.754452 1235.98 -0.719669L1235.96 -0.735535ZM1150.3 -14.7634C1151.04 -14.9061 1151.7 -15.3024 1152.15 -15.9047L1160.88 -27.2379C1165.61 -29.4729 1168.97 -30.2972 1170.82 -29.6473C1172.6 -29.045 1173.78 -26.7624 1175.58 -23.0851C1178.09 -17.9177 1181.4 -11.1019 1189.71 -5.66509C1187.15 0.627655 1183.09 7.5069 1178.46 11.5964C1174.39 6.19129 1168.21 3.16378 1158.89 3.16378C1157.62 3.16378 1156.37 3.19545 1155.11 3.22715C1149.42 3.36981 1144.49 3.49662 1141.49 0.65934C1139.13 -1.59147 1137.8 -5.93461 1137.52 -12.2591L1150.3 -14.7475V-14.7634Z" fill="#69A5C7"/>
<path d="M1090.16 140.493C1089.39 142.998 1091.77 144.979 1093.97 144.25L1148.97 126.243C1168.28 138.131 1190.66 144.408 1213.79 144.408C1282.05 144.408 1337.58 89.6597 1337.58 22.3574C1337.58 -44.9449 1282.05 -99.6934 1213.79 -99.6934C1145.53 -99.6934 1090 -44.9449 1090 22.3574C1090 45.1667 1096.37 67.2309 1108.42 86.2677L1090.16 140.493ZM1096.04 22.3574C1096.04 -41.6637 1148.87 -93.7335 1213.79 -93.7335C1278.71 -93.7335 1331.54 -41.6479 1331.54 22.3574C1331.54 86.3628 1278.71 138.448 1213.79 138.448C1191.33 138.448 1169.61 132.235 1151.01 120.458C1150.53 120.141 1149.58 119.76 1148.44 120.141L1097.8 136.721L1114.61 86.7908C1114.9 85.9349 1114.77 84.9996 1114.29 84.2546C1102.36 65.8994 1096.04 44.5009 1096.04 22.3574Z" fill="#69A5C7"/>
<path d="M1612.54 628.971C1622.61 626.689 1627.8 613.422 1624.38 598.791C1620.95 584.161 1610.39 574.492 1600.32 576.775C1590.26 579.057 1585.07 592.324 1588.49 606.955C1591.92 621.585 1602.48 631.254 1612.54 628.971ZM1601.67 582.576C1608.22 581.086 1615.9 589.122 1618.49 600.123C1621.06 611.123 1617.72 621.68 1611.19 623.17C1604.65 624.66 1596.96 616.624 1594.38 605.623C1591.8 594.623 1595.15 584.066 1601.67 582.576Z" fill="#69A5C7"/>
<path d="M1582.85 609.534C1573.69 597.535 1560.04 592.938 1551.81 599.073C1543.56 605.191 1544.28 619.393 1553.45 631.392C1562.61 643.391 1576.26 647.988 1584.49 641.854C1592.74 635.735 1592.01 621.533 1582.85 609.534ZM1580.86 637.099C1575.5 641.077 1565.15 636.829 1558.25 627.81C1551.36 618.791 1550.07 607.806 1555.42 603.828C1560.78 599.849 1571.13 604.097 1578.03 613.116C1584.92 622.136 1586.21 633.12 1580.86 637.099Z" fill="#69A5C7"/>
<path d="M1607.73 521.908C1539.47 521.108 1483.28 575.202 1482.47 642.499C1481.66 709.797 1536.52 765.192 1604.78 765.993C1673.04 766.793 1729.23 712.7 1730.04 645.402C1730.85 578.104 1675.98 522.709 1607.73 521.908ZM1604.85 760.033C1539.92 759.272 1487.74 706.571 1488.52 642.57C1489.29 578.569 1542.74 527.107 1607.66 527.868C1672.57 528.629 1724.77 581.33 1723.99 645.331C1723.22 709.332 1669.77 760.794 1604.85 760.033Z" fill="#69A5C7"/>
<path d="M1840.58 74.998C1818.29 74.998 1792.5 99.9313 1777.96 123.089C1762.47 147.785 1757.77 171.482 1765.38 186.461C1774.56 204.562 1795.81 198.555 1814.56 193.292C1823.59 190.74 1832.95 188.109 1840.58 188.109C1848.22 188.109 1857.56 190.74 1866.61 193.292C1875.82 195.876 1885.63 198.634 1894.33 198.634C1903.03 198.634 1911.13 195.67 1915.81 186.461C1923.41 171.466 1918.72 147.785 1903.22 123.089C1888.69 99.9313 1862.9 74.998 1840.6 74.998H1840.58ZM1910.39 183.813C1903.96 196.526 1889.54 193.562 1868.27 187.57C1858.83 184.907 1849.07 182.165 1840.58 182.165C1832.1 182.165 1822.34 184.923 1812.9 187.57C1791.63 193.578 1777.23 196.526 1770.78 183.813C1764.22 170.879 1768.93 148.815 1783.11 126.228C1799.81 99.5667 1823.46 80.9579 1840.58 80.9579C1857.71 80.9579 1881.34 99.5667 1898.06 126.228C1912.24 148.815 1916.95 170.879 1910.39 183.813Z" fill="#69A5C7"/>
<path d="M1808.48 54.2348C1826.4 50.4941 1836.47 25.4816 1830.86 -1.87681C1826.12 -28.094 1805.79 -48.9694 1788.09 -44.975C1764.14 -39.5699 1761.76 -6.15652 1765.71 11.1208C1773.01 43.0125 1793.48 57.3575 1808.48 54.219V54.2348ZM1789.28 -39.1261C1809.78 -42.8669 1822.24 -14.0343 1824.93 -0.688007C1829.43 21.7567 1822.85 45.9449 1807.27 48.4018C1792.5 50.716 1777.32 35.7212 1771.63 9.94784C1768.09 -6.06142 1770.81 -35.7657 1789.28 -39.1261Z" fill="#69A5C7"/>
<path d="M1772.48 63.0484C1760.36 42.9972 1740.31 33.1063 1727.21 41.1743C1712.15 50.4312 1715.14 74.35 1725.19 90.8189C1734.82 106.606 1754.59 121.791 1770.47 112.693C1783.82 105.037 1784.64 83.0996 1772.5 63.0484H1772.48ZM1767.35 107.589C1757.97 113.168 1741.52 105.481 1730.36 87.7756C1721.28 73.3514 1719.46 52.0638 1730.3 46.2783C1742.76 39.621 1759.33 52.9197 1767.29 66.0917C1777.34 82.7033 1777.34 101.645 1767.35 107.589Z" fill="#69A5C7"/>
<path d="M1915.42 11.1367C1919.38 -6.14059 1917.01 -39.554 1893.04 -44.9591C1875.34 -48.9535 1855.02 -28.0939 1850.28 -1.86089C1844.67 25.4975 1854.73 50.51 1872.66 54.2508C1887.66 57.3734 1908.12 43.0443 1915.42 11.1526V11.1367ZM1856.21 -0.68792C1858.88 -14.0343 1871.36 -42.8668 1891.85 -39.126C1910.33 -35.7656 1913.04 -6.06134 1909.51 9.94792C1903.82 35.7212 1888.64 50.7161 1873.86 48.4019C1858.29 45.9608 1851.71 21.7726 1856.21 -0.68792Z" fill="#69A5C7"/>
<path d="M1953.93 41.158C1940.81 33.1058 1920.76 42.9809 1908.65 63.0321C1896.52 83.0833 1897.34 105.037 1910.68 112.677C1926.55 121.775 1946.34 106.59 1955.97 90.8026C1966.02 74.3178 1969.01 50.4149 1953.94 41.158H1953.93ZM1950.76 87.7592C1939.6 105.465 1923.14 113.152 1913.77 107.573C1903.8 101.644 1903.8 82.687 1913.83 66.0754C1921.79 52.9034 1938.36 39.6205 1950.82 46.262C1961.66 52.0475 1959.84 73.3192 1950.76 87.7592Z" fill="#69A5C7"/>
<path d="M1870.76 123.263H1855.67V106.398C1855.67 104.765 1854.32 103.418 1852.64 103.418H1828.5C1826.82 103.418 1825.47 104.749 1825.47 106.398V123.263H1810.38C1808.71 123.263 1807.36 124.595 1807.36 126.243V146.088C1807.36 147.721 1808.71 149.068 1810.38 149.068H1825.47V165.933C1825.47 167.566 1826.82 168.913 1828.5 168.913H1852.64C1854.32 168.913 1855.67 167.582 1855.67 165.933V149.068H1870.76C1872.43 149.068 1873.79 147.737 1873.79 146.088V126.243C1873.79 124.61 1872.43 123.263 1870.76 123.263ZM1867.74 143.108H1852.64C1850.97 143.108 1849.62 144.44 1849.62 146.088V162.953H1831.5V146.088C1831.5 144.456 1830.15 143.108 1828.48 143.108H1813.38V129.207H1828.48C1830.15 129.207 1831.5 127.876 1831.5 126.227V109.362H1849.62V126.227C1849.62 127.86 1850.97 129.207 1852.64 129.207H1867.74V143.108Z" fill="#69A5C7"/>
<path d="M1854.82 322.255C1854.66 320.401 1851.64 295.911 1847.38 273.213L1848.61 275.638C1849.16 276.716 1850.28 277.382 1851.49 277.287C1852.7 277.223 1853.74 276.446 1854.16 275.321L1866.23 242.573C1866.68 241.353 1866.27 239.974 1865.2 239.181L1853.13 230.257C1852.74 229.972 1852.29 229.782 1851.81 229.703L1815.69 223.743C1815.35 223.695 1815.03 223.695 1814.69 223.743L1778.47 229.703C1777.99 229.782 1777.54 229.988 1777.15 230.257L1765.08 239.181C1764.02 239.974 1763.6 241.353 1764.05 242.573L1776.12 275.321C1776.54 276.446 1777.59 277.223 1778.79 277.287C1780 277.382 1781.12 276.716 1781.67 275.638L1782.91 273.213C1778.65 295.895 1775.62 320.401 1775.46 322.255C1775.46 322.255 1775.25 393.631 1763.61 415.87C1760.14 422.479 1758.5 429.073 1757.96 435.223C1743.53 439.868 1719.87 441.912 1696.91 443.894C1658.34 447.222 1625.03 450.091 1625.03 464.848C1625.03 466.481 1626.38 467.828 1628.05 467.828H1864.03C1865.16 467.828 1866.22 467.194 1866.72 466.196C1867.25 465.165 1879.71 440.628 1866.72 415.87C1855.06 393.647 1854.87 322.255 1854.87 322.255H1854.82ZM1632.43 461.869C1639.42 454.815 1671.25 452.073 1697.41 449.822C1719.64 447.904 1742.55 445.907 1757.71 441.5C1757.92 450.218 1760.08 457.51 1761.72 461.869H1632.41H1632.43ZM1779.39 266.809L1770.46 242.653L1780.17 235.472L1815.17 229.734L1850.08 235.472L1859.79 242.653L1850.86 266.809L1841.92 249.199C1841.17 247.709 1839.32 247.138 1837.87 247.868C1836.73 248.422 1835.9 249.833 1836.3 251.323C1837.38 255.238 1838.45 259.692 1839.47 264.463L1824.9 292.963L1815.16 297.813L1805.32 292.963L1790.75 264.463C1791.76 259.692 1792.83 255.238 1793.92 251.323C1794.34 249.833 1793.49 248.422 1792.34 247.868C1790.91 247.154 1789.05 247.709 1788.29 249.199L1779.35 266.809H1779.39ZM1780.24 461.869H1768.24C1765.91 456.305 1759.34 437.316 1768.97 418.564C1775.06 406.692 1778.2 383.899 1779.82 363.404L1787.54 436.127C1787.73 438.948 1787.2 441.817 1786.04 444.306L1780.58 454.863C1779.51 457.097 1779.42 459.602 1780.24 461.853V461.869ZM1805.54 461.869C1805.9 460.933 1806.12 459.935 1806.12 458.889V369.586C1806.12 364.672 1810.19 360.662 1815.17 360.662C1820.16 360.662 1824.22 364.672 1824.22 369.586L1824.13 458.889C1824.13 459.935 1824.35 460.933 1824.71 461.869H1805.54ZM1841.54 461.869H1833.2C1831.62 461.869 1830.17 460.458 1830.17 458.889L1830.27 369.586C1830.27 360.741 1822.39 353.671 1813.2 354.828C1805.59 355.795 1800.08 362.532 1800.08 370.109V458.904C1800.08 460.537 1798.73 461.884 1797.05 461.884H1788.71C1786.43 461.884 1785.04 459.412 1785.98 457.51L1791.44 446.921C1793.1 443.402 1793.81 439.519 1793.53 435.62L1781.43 322.287C1781.48 321.938 1784.56 296.831 1788.86 273.958L1800.38 296.498C1800.67 297.068 1801.15 297.528 1801.73 297.829L1813.81 303.773C1814.55 304.138 1815.77 304.138 1816.51 303.773L1828.47 297.829C1829.06 297.544 1829.53 297.068 1829.82 296.498L1841.35 273.958C1845.65 296.831 1848.74 321.938 1848.77 322.287L1836.67 435.62C1836.38 439.519 1837.1 443.418 1838.76 446.921L1844.22 457.51C1845.16 459.412 1843.77 461.884 1841.49 461.884L1841.54 461.869ZM1862.04 461.869H1850.04C1850.86 459.618 1850.77 457.113 1849.71 454.878L1844.24 444.322C1843.07 441.817 1842.54 438.948 1842.74 436.143L1850.46 363.42C1852.07 383.899 1855.2 406.692 1861.31 418.58C1870.94 437.332 1864.38 456.321 1862.04 461.884V461.869Z" fill="#69A5C7"/>
<path d="M1809.15 280.265H1812.17V283.244C1812.17 284.877 1813.52 286.224 1815.19 286.224C1816.86 286.224 1818.21 284.893 1818.21 283.244V280.265H1821.23C1822.89 280.265 1824.26 278.933 1824.26 277.285C1824.26 275.636 1822.91 274.305 1821.23 274.305H1809.16C1807.51 274.305 1806.14 275.636 1806.14 277.285C1806.14 278.933 1807.49 280.265 1809.16 280.265H1809.15Z" fill="#69A5C7"/>
<path d="M1628.01 396.371H1697.44V434.588C1697.44 436.22 1698.79 437.568 1700.47 437.568C1702.14 437.568 1703.49 436.236 1703.49 434.588V393.392C1703.49 391.759 1702.14 390.412 1700.47 390.412H1631.03V301.108H1700.47C1702.12 301.108 1703.49 299.777 1703.49 298.129V229.653H1766.89C1768.55 229.653 1769.92 228.322 1769.92 226.673C1769.92 225.025 1768.57 223.693 1766.89 223.693H1700.48C1698.83 223.693 1697.46 225.025 1697.46 226.673V295.149H1628.02C1626.37 295.149 1625 296.48 1625 298.129V393.392C1625 395.024 1626.35 396.371 1628.02 396.371H1628.01Z" fill="#69A5C7"/>
<path d="M1568.35 -89.5674V-110.522C1568.35 -111.854 1567.45 -113.027 1566.13 -113.391C1564.79 -113.74 1563.43 -113.201 1562.74 -112.06C1562.38 -111.473 1526.42 -52.5559 1502.8 -29.287C1497.88 -24.4367 1492.46 -20.6166 1486.72 -16.5905C1464.51 -0.961678 1441.53 15.2061 1441.53 91.892C1441.53 96.0925 1440.2 99.3894 1437.46 101.989C1428.04 110.929 1403.62 110.009 1385.83 109.344C1370.36 108.757 1362.13 108.615 1358.66 111.912C1357.58 112.942 1357 114.242 1357 115.7C1357 129.173 1394.72 130.584 1480.79 130.584H1577.41C1585.34 130.584 1589.49 123.102 1589.49 115.7C1589.49 108.298 1585.34 100.816 1577.41 100.816C1571.38 100.816 1568.36 97.8414 1568.36 91.892C1568.36 87.2953 1570.42 78.3714 1572.78 68.0367C1576.19 53.2004 1580.44 34.7342 1580.44 20.4527C1580.44 6.17115 1575.92 -0.723907 1572.3 -5.7803C1570.02 -8.98215 1568.36 -11.2805 1568.36 -15.2749C1568.36 -19.2693 1577.27 -22.0115 1584.41 -24.3574C1594.33 -27.6227 1604.58 -30.9989 1604.58 -39.0986C1604.58 -62.5419 1593.22 -87.7128 1568.35 -89.5991V-89.5674ZM1582.49 -29.9844C1572.58 -26.7192 1562.32 -23.343 1562.32 -15.2432C1562.32 -9.36262 1564.89 -5.7803 1567.37 -2.32484C1570.66 2.27187 1574.39 7.47093 1574.39 20.4686C1574.39 33.4662 1570.23 52.1859 1566.88 66.7369C1564.33 77.8641 1562.3 86.6454 1562.3 91.9079C1562.3 105.397 1563.72 106.792 1577.4 106.792C1582.17 106.792 1583.44 112.641 1583.44 115.716C1583.44 118.791 1582.17 124.64 1577.4 124.64H1551C1552.48 122.04 1553.23 118.87 1553.23 115.716C1553.23 108.313 1549.09 100.832 1541.16 100.832H1524.7C1525.66 100.119 1526.58 99.326 1527.45 98.47C1532.4 93.588 1535.13 87.0258 1535.13 79.9881C1535.13 66.6735 1524.76 53.2003 1504.94 53.2003C1503.27 53.2003 1501.92 54.5318 1501.92 56.1802C1501.92 57.8287 1503.27 59.1602 1504.94 59.1602C1521.53 59.1602 1529.09 69.9704 1529.09 80.004C1529.09 85.4408 1526.98 90.513 1523.17 94.2697C1518.81 98.5652 1512.5 100.832 1504.92 100.832C1503.25 100.832 1501.9 102.163 1501.9 103.812C1501.9 105.46 1503.25 106.792 1504.92 106.792H1541.16C1545.94 106.792 1547.21 112.641 1547.21 115.716C1547.21 118.791 1545.94 124.64 1541.16 124.64H1480.78C1436.74 124.64 1363.03 124.64 1362.84 116.207C1364.68 114.511 1376.76 114.971 1385.58 115.288C1405.57 116.049 1430.39 116.968 1441.66 106.269C1445.58 102.544 1447.58 97.6934 1447.58 91.8762C1447.58 18.2494 1469.27 3.00099 1490.25 -11.7561C1495.94 -15.7505 1501.8 -19.8875 1507.08 -25.0865C1525.79 -43.5368 1551.16 -82.3394 1562.32 -99.9972V-86.7301C1562.32 -85.0816 1563.67 -83.7502 1565.34 -83.7502C1588.17 -83.7502 1598.56 -60.6081 1598.56 -39.0986C1598.56 -35.2944 1589.65 -32.3621 1582.51 -30.0162L1582.49 -29.9844Z" fill="#69A5C7"/>
<path d="M1879.11 492.364C1878.14 491.699 1876.86 491.699 1875.87 492.364L1763.2 570.136C1761.92 571.008 1761.62 572.738 1762.51 573.995L1768.93 583.105C1769.99 584.569 1771.85 584.658 1773.26 583.519V716.835C1773.26 718.373 1774.52 719.616 1776.08 719.616H1978.9C1980.46 719.616 1981.72 718.373 1981.72 716.835V583.504C1983.28 584.776 1985.14 584.406 1986.06 583.105L1992.48 573.995C1993.36 572.738 1993.06 571.008 1991.79 570.136L1879.11 492.364ZM1919.74 714.04H1835.24V650.155C1835.24 627.189 1854.2 608.497 1877.49 608.497C1900.79 608.497 1919.74 627.189 1919.74 650.155V714.04ZM1976.08 714.04H1925.37V650.155C1925.37 624.128 1903.89 602.936 1877.48 602.936C1851.06 602.936 1829.58 624.113 1829.58 650.155V714.04H1778.87V579.615L1877.46 511.574L1976.05 579.6V714.04H1976.08ZM1983.04 577.633L1879.1 505.91C1878.12 505.23 1876.85 505.23 1875.86 505.91L1771.93 577.633L1768.72 573.093L1877.48 498.028L1986.24 573.093L1983.04 577.633Z" fill="#69A5C7"/>
<path d="M1857.12 568.758C1852.14 563.686 1846.1 558.51 1839.05 558.51C1831.64 558.51 1826.85 563.922 1826.13 569.009C1825.73 571.834 1826.57 575.368 1829.63 577.942C1826.57 580.515 1825.73 584.049 1826.13 586.874C1826.85 591.961 1831.62 597.388 1839.05 597.388C1846.47 597.388 1852.14 592.212 1857.12 587.14C1857.68 586.578 1858.4 586.267 1859.18 586.267H1895.81C1896.57 586.267 1897.31 586.578 1897.86 587.14C1902.84 592.212 1908.88 597.388 1915.93 597.388C1923.34 597.388 1928.13 591.976 1928.85 586.874C1929.25 584.049 1928.41 580.515 1925.35 577.942C1928.41 575.368 1929.25 571.834 1928.85 569.009C1928.13 563.922 1923.36 558.51 1915.93 558.51C1908.51 558.51 1902.84 563.686 1897.86 568.743C1897.31 569.305 1896.57 569.616 1895.81 569.616H1859.18C1858.41 569.616 1857.68 569.305 1857.12 568.743V568.758ZM1901.9 572.618C1906.05 568.388 1910.97 564.07 1915.92 564.07C1920 564.07 1922.85 566.983 1923.25 569.793C1923.63 572.366 1921.93 574.318 1918.51 575.28C1917.3 575.62 1916.47 576.714 1916.47 577.942C1916.47 579.169 1917.3 580.263 1918.51 580.603C1921.93 581.565 1923.61 583.517 1923.25 586.09C1922.85 588.9 1920 591.813 1915.92 591.813C1910.95 591.813 1906.05 587.495 1901.88 583.265C1900.26 581.609 1898.1 580.707 1895.79 580.707H1859.16C1856.85 580.707 1854.68 581.624 1853.06 583.265C1848.9 587.495 1843.98 591.813 1839.03 591.813C1834.95 591.813 1832.1 588.9 1831.7 586.09C1831.32 583.517 1833.02 581.565 1836.44 580.603C1837.65 580.263 1838.48 579.169 1838.48 577.942C1838.48 576.714 1837.65 575.62 1836.44 575.28C1833.02 574.318 1831.34 572.366 1831.7 569.793C1832.1 566.983 1834.95 564.07 1839.03 564.07C1843.98 564.07 1848.9 568.388 1853.07 572.618C1854.69 574.274 1856.85 575.176 1859.16 575.176H1895.79C1898.09 575.176 1900.26 574.274 1901.9 572.618Z" fill="#69A5C7"/>
</g>
</g>
</svg>
